<?xml version="1.0" standalone="no"?>
<!DOCTYPE svg PUBLIC "-//W3C//DTD SVG 20010904//EN" "http://www.w3.org/TR/2001/REC-SVG-20010904/DTD/svg10.dtd">
<svg version="1.0" xmlns="http://www.w3.org/2000/svg" width="2560.000000pt" height="2560.000000pt" viewBox="0 0 2560.000000 2560.000000" preserveAspectRatio="xMidYMid meet">
	<metadata>
		Created by potrace 1.11, written by Peter Selinger 2001-2013
	</metadata>
	<g transform="translate(0.000000,2560.000000) scale(0.100000,-0.100000)" fill="#000000" stroke="none">
		<path
			d="M0 12800 l0 -12800 12800 0 12800 0 0 5303 c0 2916 -4 5297 -8 5290
-4 -6 -20 -15 -35 -18 -19 -5 -29 -15 -33 -34 -10 -47 -17 -58 -21 -38 -3 12
-15 17 -44 17 -37 0 -39 -2 -39 -30 0 -20 5 -30 15 -30 11 0 15 -12 15 -46 0
-35 3 -45 14 -41 7 3 19 -4 26 -17 9 -18 9 -30 -4 -59 -8 -21 -20 -37 -25 -37
-6 0 -36 -18 -67 -40 -32 -22 -63 -40 -71 -40 -7 0 -13 -4 -13 -9 0 -5 -9 -12
-20 -16 -28 -9 -42 -66 -38 -155 l3 -75 52 -25 c50 -24 53 -27 53 -63 0 -24 5
-40 15 -43 8 -4 15 -12 15 -20 0 -8 4 -14 10 -14 5 0 12 -11 16 -25 3 -14 12
-25 20 -25 8 0 14 -9 14 -20 0 -13 -7 -20 -19 -20 -11 0 -23 -9 -26 -20 -3
-11 -13 -20 -21 -20 -8 0 -14 -4 -14 -8 0 -5 -9 -19 -20 -32 -13 -15 -20 -37
-20 -67 0 -23 -4 -43 -10 -43 -5 0 -10 -13 -10 -30 0 -20 -5 -30 -15 -30 -9 0
-15 -9 -15 -25 0 -20 -5 -25 -26 -25 -31 0 -59 -14 -102 -51 -18 -16 -38 -29
-45 -29 -7 0 -23 -12 -36 -26 -25 -25 -39 -73 -48 -156 -3 -27 -9 -48 -14 -48
-5 0 -9 -7 -9 -15 0 -8 -7 -15 -15 -15 -8 0 -15 -5 -15 -11 0 -6 -13 -24 -30
-41 -16 -16 -30 -37 -30 -47 0 -10 -11 -24 -25 -31 -14 -7 -25 -19 -25 -26 0
-8 -6 -11 -14 -8 -7 3 -30 -11 -51 -32 -23 -22 -61 -44 -97 -56 -33 -11 -62
-27 -65 -34 -3 -8 -31 -26 -62 -40 -84 -38 -85 -38 -93 -73 -12 -45 27 -113
108 -186 35 -32 64 -64 64 -71 0 -8 9 -29 20 -49 21 -37 27 -81 10 -70 -5 3
-10 1 -10 -4 0 -6 -7 -11 -16 -11 -36 0 -51 -40 -61 -158 -3 -41 -1 -62 6 -62
6 0 11 -18 11 -40 0 -29 4 -40 15 -40 8 0 15 -4 15 -10 0 -5 7 -10 15 -10 8 0
15 -4 15 -9 0 -14 83 -51 113 -51 17 0 27 -5 27 -15 0 -8 5 -15 10 -15 6 0 10
-6 10 -13 0 -24 37 -57 64 -57 14 0 26 5 26 10 0 6 12 10 26 10 17 0 28 -6 31
-20 3 -11 9 -17 14 -14 5 3 9 -2 9 -10 0 -9 7 -16 15 -16 8 0 15 -6 15 -14 0
-8 11 -17 25 -20 14 -4 25 -13 25 -21 0 -11 -7 -14 -25 -9 -23 6 -25 3 -25
-25 0 -28 3 -31 30 -31 20 0 30 -5 30 -15 0 -9 -6 -12 -15 -9 -22 9 -18 -8 8
-36 13 -14 27 -45 30 -68 6 -35 4 -45 -13 -59 -15 -13 -20 -30 -20 -69 0 -55
14 -81 77 -140 18 -18 33 -41 33 -53 0 -11 8 -29 18 -39 13 -13 21 -40 25 -93
7 -84 1 -119 -20 -119 -11 0 -13 -7 -9 -25 5 -18 2 -27 -9 -31 -9 -4 -15 -19
-15 -38 0 -46 -11 -76 -26 -76 -8 0 -14 -4 -14 -8 0 -4 -14 -16 -31 -26 -24
-14 -40 -16 -82 -10 -29 4 -56 8 -60 8 -7 1 -35 64 -37 82 -1 8 -73 29 -140
41 -19 3 -38 11 -42 17 -5 8 -8 7 -8 -1 0 -21 -16 -15 -30 12 -7 14 -20 25
-27 25 -7 0 -16 7 -19 15 -7 18 -40 20 -47 3 -4 -10 -6 -10 -6 0 -1 6 -8 12
-15 12 -8 0 -27 11 -42 25 -23 22 -34 25 -71 20 -24 -3 -63 -7 -87 -10 -32 -4
-48 -2 -59 10 -9 8 -20 15 -25 15 -6 0 -12 5 -14 11 -2 6 -16 12 -31 12 -15 0
-32 6 -38 13 -13 16 -69 19 -69 4 0 -5 -12 -13 -27 -16 -35 -8 -78 -47 -93
-85 -7 -16 -16 -29 -20 -29 -5 0 -13 -13 -19 -30 -5 -16 -14 -30 -20 -30 -5 0
-13 -10 -17 -23 -4 -12 -11 -25 -17 -29 -6 -3 -11 -36 -11 -72 -1 -46 -5 -66
-13 -66 -8 0 -13 -15 -13 -40 0 -45 -14 -54 -24 -15 -4 14 -13 25 -21 25 -11
0 -15 12 -15 45 0 41 -2 45 -25 45 -15 0 -25 -6 -25 -14 0 -8 -7 -16 -15 -20
-18 -6 -45 2 -45 15 0 5 -7 9 -15 9 -10 0 -15 10 -15 30 0 17 -4 30 -10 30 -5
0 -10 -5 -10 -11 0 -6 -7 -4 -15 5 -8 8 -15 19 -15 25 0 6 -6 11 -14 11 -8 0
-17 12 -21 27 -3 15 -12 31 -18 35 -8 5 -8 14 1 33 7 14 12 44 12 65 0 36 -3
40 -25 40 -21 0 -25 5 -25 30 0 20 -5 30 -15 30 -8 0 -15 5 -15 10 0 6 -7 10
-15 10 -21 0 -19 28 5 78 11 22 20 53 20 67 0 14 5 25 10 25 6 0 10 13 10 29
0 34 -18 45 -87 53 -7 1 -13 7 -13 15 0 7 -4 13 -10 13 -5 0 -10 5 -10 10 0
17 -48 60 -67 60 -9 0 -26 -9 -38 -19 -107 -102 -110 -107 -109 -169 l2 -53
-29 6 c-22 5 -29 3 -29 -9 0 -9 -7 -16 -15 -16 -8 0 -15 -7 -15 -15 0 -8 -4
-15 -10 -15 -5 0 -10 -7 -10 -15 0 -8 5 -15 10 -15 6 0 10 -13 10 -30 0 -28 3
-30 35 -30 42 0 88 -27 81 -47 -3 -7 1 -38 8 -67 14 -54 11 -132 -5 -142 -15
-9 -10 -54 6 -54 8 0 15 -4 15 -9 0 -5 9 -12 19 -16 36 -11 59 -135 26 -135
-8 0 -15 4 -15 10 0 5 -18 13 -40 16 -22 4 -40 10 -40 15 0 5 -14 9 -30 9 -17
0 -29 -3 -29 -7 5 -34 -3 -39 -81 -49 -67 -9 -84 -16 -106 -39 -23 -25 -30
-27 -75 -22 -36 5 -49 3 -49 -7 0 -7 -11 -18 -25 -24 -33 -15 -85 -63 -85 -78
0 -7 -16 -29 -35 -50 -19 -20 -35 -41 -35 -45 0 -5 -7 -9 -16 -9 -10 0 -14 -6
-10 -17 3 -10 8 -44 12 -75 3 -32 10 -58 15 -58 5 0 9 -6 9 -14 0 -8 6 -21 14
-29 8 -8 16 -32 18 -53 l3 -39 51 2 c41 1 56 -3 79 -23 31 -27 42 -29 79 -14
16 6 27 6 31 0 8 -13 72 -13 88 0 122 99 187 167 187 194 0 6 11 20 25 30 16
12 25 29 25 47 0 53 21 129 36 129 8 0 14 7 14 15 0 8 7 15 15 15 8 0 15 -7
15 -15 0 -8 7 -15 15 -15 8 0 15 7 15 15 0 8 11 17 25 21 14 3 25 10 25 15 0
5 11 9 25 9 14 0 25 5 25 10 0 6 9 10 20 10 11 0 20 -4 20 -10 0 -5 10 -10 23
-10 13 0 55 -8 93 -18 46 -12 81 -16 104 -11 19 4 45 5 58 2 12 -3 22 -1 22 5
0 13 40 23 68 15 15 -3 22 -13 22 -29 0 -13 4 -24 9 -24 5 0 12 -11 15 -25 4
-14 11 -25 16 -25 14 0 13 -77 -1 -85 -6 -4 -8 -13 -5 -21 6 -15 -37 -68 -47
-58 -3 3 -19 -6 -35 -21 -23 -20 -32 -39 -37 -77 -7 -52 10 -142 26 -132 11 6
12 -35 3 -100 -6 -43 -9 -46 -35 -46 -16 0 -29 -4 -29 -9 0 -5 -18 -11 -39
-15 -22 -3 -41 -11 -43 -17 -4 -13 -99 -14 -107 -1 -3 6 -19 14 -35 18 -26 6
-28 5 -22 -17 3 -13 3 -18 0 -11 -9 20 -61 14 -86 -10 -16 -17 -32 -22 -55
-20 -25 2 -33 -1 -33 -12 0 -9 -9 -16 -20 -16 -23 0 -60 -29 -60 -47 0 -7 -7
-13 -15 -13 -8 0 -15 -6 -15 -14 0 -11 -19 -13 -96 -10 -89 3 -97 5 -124 33
-22 22 -35 27 -57 23 -15 -3 -31 -9 -34 -14 -3 -5 -20 -10 -37 -12 -17 -3 -42
-12 -54 -20 -30 -21 -38 -20 -38 4 0 13 -7 20 -20 20 -20 0 -21 -4 -14 -60 5
-50 4 -60 -9 -60 -8 0 -17 -6 -20 -12 -5 -17 -128 -13 -138 4 -4 6 -13 13 -21
14 -29 6 -85 30 -120 52 -20 13 -45 25 -55 27 -37 7 -78 27 -96 46 -10 10 -28
19 -40 19 -15 0 -28 11 -41 34 -16 29 -17 41 -8 83 11 48 26 141 38 240 3 29
10 55 15 59 11 7 12 118 0 142 -4 9 -16 33 -25 53 -10 21 -36 48 -61 64 -47
29 -65 64 -65 125 0 25 -9 49 -30 76 -16 21 -30 43 -30 47 0 15 -75 77 -100
84 -14 3 -35 13 -48 21 -15 10 -39 13 -78 10 -47 -4 -62 -1 -90 19 -40 27
-104 32 -104 8 0 -8 -5 -15 -11 -15 -14 0 -39 -25 -39 -39 0 -6 -11 -11 -25
-11 -14 0 -25 -4 -25 -10 0 -5 -7 -10 -15 -10 -8 0 -15 4 -15 9 0 5 -10 13
-22 17 -13 3 -31 13 -40 21 -19 17 -58 9 -58 -12 0 -7 -6 -15 -12 -17 -10 -4
-10 -10 -1 -31 12 -27 12 -27 -27 -27 -27 0 -40 4 -40 14 0 14 -29 26 -68 26
-13 0 -22 -6 -21 -13 4 -33 -2 -47 -21 -47 -21 0 -60 -33 -60 -50 0 -5 -5 -10
-11 -10 -6 0 -9 -6 -6 -13 3 -8 -3 -20 -14 -28 -10 -7 -19 -21 -19 -29 0 -9
-13 -27 -30 -40 -16 -14 -29 -30 -30 -36 0 -11 -79 -54 -100 -54 -7 0 -21 -10
-32 -22 -14 -17 -30 -22 -59 -22 -21 1 -39 -2 -39 -7 0 -23 -158 -47 -172 -25
-4 6 -10 7 -15 3 -4 -4 -1 -17 6 -28 16 -26 5 -39 -13 -14 -10 14 -20 16 -49
11 -21 -4 -37 -11 -37 -15 0 -5 -11 -12 -25 -15 -14 -4 -24 -10 -24 -14 4 -24
-3 -42 -16 -42 -10 0 -17 -14 -21 -41 -4 -22 -13 -43 -21 -46 -8 -3 -13 -15
-12 -27 0 -11 1 -28 0 -38 -2 -27 -66 -85 -130 -117 -36 -19 -67 -42 -77 -61
-10 -16 -25 -30 -32 -30 -14 0 -52 -28 -115 -84 -47 -42 -169 -96 -217 -96
-29 0 -40 -4 -40 -15 0 -8 -6 -15 -14 -15 -8 0 -21 -7 -30 -15 -19 -20 -168
-25 -174 -7 -2 7 -17 12 -33 12 -16 0 -29 5 -29 11 0 6 -7 9 -15 5 -10 -4 -15
1 -15 14 0 13 -7 20 -19 20 -11 0 -29 12 -40 26 -12 15 -21 23 -21 18 0 -5 -6
1 -14 12 -8 11 -40 29 -70 39 -31 11 -56 23 -56 27 0 4 -13 8 -29 8 -16 0 -36
7 -45 15 -8 8 -27 15 -41 15 -15 0 -43 8 -63 17 -26 12 -37 14 -40 5 -6 -19
-36 -14 -50 8 -7 12 -23 20 -40 20 -15 0 -40 8 -57 17 -39 21 -113 34 -202 36
-86 2 -127 -20 -128 -69 0 -27 -2 -29 -47 -32 -38 -2 -48 0 -48 12 0 9 -11 18
-25 22 -14 3 -25 10 -25 15 0 5 -25 9 -55 9 -30 0 -55 5 -55 10 0 6 -5 10 -11
10 -5 0 -7 -4 -4 -10 4 -6 -14 -10 -47 -10 -33 0 -67 -7 -88 -19 -28 -14 -48
-17 -99 -13 -47 4 -62 2 -57 -7 5 -8 -16 -11 -75 -11 -74 0 -88 -3 -137 -31
-48 -27 -61 -30 -101 -24 -79 12 -141 15 -141 6 0 -5 -28 -7 -62 -6 -76 4
-144 -7 -141 -22 1 -7 -10 -14 -26 -18 -16 -3 -38 -15 -49 -25 -12 -11 -28
-20 -37 -20 -8 0 -15 -7 -15 -15 0 -10 -10 -15 -27 -16 -16 0 -22 -3 -15 -6 6
-2 12 -9 12 -14 0 -13 -118 -11 -122 2 -6 18 -127 17 -137 0 -5 -8 -19 -12
-34 -9 -14 3 -32 1 -39 -3 -10 -7 -10 -9 0 -9 6 0 12 -11 12 -25 0 -14 -4 -25
-10 -25 -5 0 -10 -6 -10 -14 0 -16 -41 -29 -64 -20 -8 3 -18 19 -21 35 -6 25
-10 29 -28 23 -29 -9 -35 -16 -19 -21 21 -8 13 -23 -13 -23 -14 0 -25 5 -25
10 0 6 -7 10 -15 10 -8 0 -15 7 -15 15 0 8 -7 15 -15 15 -8 0 -15 -5 -15 -10
0 -6 -17 -8 -42 -4 -32 4 -39 3 -28 -5 12 -8 5 -11 -27 -11 -24 0 -43 -4 -43
-10 0 -5 -11 -12 -25 -16 -14 -3 -25 -12 -25 -20 0 -8 -6 -11 -15 -8 -9 4 -15
0 -15 -10 0 -20 -75 -23 -94 -3 -18 17 -29 94 -15 103 12 7 -32 54 -51 54 -5
0 -10 5 -10 10 0 6 -18 10 -40 10 -34 0 -40 3 -40 21 0 11 -4 18 -9 15 -11 -7
-71 13 -71 24 0 11 -106 81 -170 112 -32 16 -55 38 -40 38 6 0 8 5 5 10 -4 6
-11 8 -16 5 -5 -4 -9 -1 -9 4 0 6 -12 11 -27 10 -25 0 -26 -1 -8 -10 21 -9 -5
-8 -102 7 -63 10 -173 -4 -173 -22 0 -8 -7 -14 -15 -14 -8 0 -15 -5 -15 -11 0
-15 -22 -35 -48 -43 -12 -4 -22 -14 -22 -22 0 -9 -5 -12 -12 -8 -8 5 -9 2 -5
-9 8 -22 -14 -33 -80 -40 -42 -5 -65 -1 -128 24 -88 33 -95 34 -95 14 0 -8 -4
-15 -10 -15 -15 0 -50 -33 -50 -47 0 -7 -4 -13 -10 -13 -5 0 -10 -7 -10 -15 0
-8 -4 -15 -10 -15 -21 0 -108 -82 -92 -88 27 -9 -83 -82 -125 -82 -32 0 -53
10 -53 27 0 11 -7 13 -30 8 -23 -5 -30 -3 -30 9 0 20 -46 21 -66 2 -16 -17
-19 -36 -4 -36 14 0 12 -27 -3 -34 -9 -5 -9 -7 1 -12 7 -3 12 -24 12 -49 0
-37 -4 -45 -22 -51 -13 -4 -26 -11 -29 -16 -3 -5 -36 -14 -72 -20 -37 -6 -64
-14 -62 -18 3 -5 -28 -11 -68 -15 -39 -3 -107 -11 -149 -16 -42 -5 -89 -7
-105 -4 -59 12 -109 29 -124 42 -8 7 -21 13 -27 13 -7 0 -12 5 -12 11 0 6 -7
9 -15 5 -9 -3 -15 0 -15 10 0 10 -6 14 -15 10 -9 -3 -15 0 -15 10 0 10 6 14
15 10 8 -3 15 -1 15 3 0 5 -13 14 -30 20 -16 5 -30 17 -30 25 0 9 -4 16 -10
16 -5 0 -10 7 -10 15 0 8 -5 15 -11 15 -6 0 -20 11 -31 25 -16 21 -28 25 -68
25 -50 0 -188 -46 -219 -73 -9 -8 -26 -18 -38 -21 -13 -4 -23 -12 -23 -17 0
-18 -81 -107 -121 -133 -21 -14 -47 -26 -58 -26 -11 0 -21 -5 -23 -11 -2 -7
-57 -14 -147 -19 -104 -6 -146 -11 -152 -21 -5 -8 -9 -9 -9 -4 0 6 -5 2 -11
-8 -6 -10 -22 -17 -39 -17 -17 0 -30 -4 -30 -9 0 -13 -52 -24 -59 -12 -7 11
-91 3 -91 -9 0 -5 -22 -11 -50 -15 -27 -4 -50 -11 -50 -16 0 -14 -88 -10 -102
4 -7 8 -20 12 -29 10 -9 -3 -23 3 -32 11 -8 9 -31 16 -49 16 -48 0 -78 10 -78
26 0 8 -7 14 -15 14 -21 0 -19 20 3 21 13 0 14 2 2 6 -8 2 -29 11 -47 19 -17
8 -36 14 -42 14 -6 0 -11 5 -11 11 0 7 -10 9 -26 5 -20 -5 -30 -1 -45 18 -11
14 -39 31 -62 37 -66 18 -90 31 -75 42 10 7 10 10 1 14 -7 2 -13 11 -13 19 0
9 -11 14 -30 14 -16 0 -30 -4 -30 -10 0 -5 -7 -10 -15 -10 -8 0 -15 5 -15 10
0 6 -11 10 -25 10 -15 0 -25 -6 -25 -14 0 -9 -12 -13 -38 -12 -25 0 -45 -6
-56 -17 -32 -32 -76 -18 -76 24 0 19 -5 29 -15 29 -8 0 -15 -8 -15 -19 0 -16
-6 -18 -45 -13 -35 3 -56 -1 -93 -19 -26 -13 -48 -27 -50 -32 -6 -12 -32 -8
-32 6 0 8 -20 12 -66 13 -51 0 -68 4 -76 17 -5 10 -13 15 -19 12 -5 -4 -9 1
-9 9 0 9 -4 16 -9 16 -5 0 -9 6 -8 12 0 7 -1 28 -1 46 l-2 33 -97 -5 c-54 -3
-109 -6 -123 -6 -40 0 -177 17 -155 19 13 2 7 6 -17 13 -21 6 -38 14 -38 19 0
5 -18 9 -40 9 -22 0 -40 -4 -40 -10 0 -5 -7 -10 -15 -10 -8 0 -15 5 -15 10 0
6 -7 10 -15 10 -8 0 -15 -4 -15 -10 0 -15 -50 -12 -66 5 -17 16 -44 10 -44
-11 0 -11 -24 -13 -125 -11 -117 3 -125 2 -125 -16 0 -15 -5 -18 -22 -13 -13
3 -26 6 -30 6 -5 0 -8 7 -8 15 0 12 -13 15 -55 15 -30 0 -55 5 -55 10 0 6 -14
10 -31 10 -19 0 -28 4 -23 11 4 8 -3 9 -25 4 -31 -7 -61 10 -61 34 0 7 -22 11
-54 11 -45 0 -56 4 -72 25 -21 28 -44 33 -44 9 0 -12 -7 -14 -31 -9 -28 6 -30
5 -27 -21 2 -15 -3 -29 -10 -31 -6 -3 -12 2 -12 11 0 9 -6 16 -13 16 -14 0
-47 -35 -47 -50 0 -6 -6 -10 -14 -10 -16 0 -26 -21 -26 -56 0 -24 -1 -24 -95
-24 -78 0 -95 3 -95 15 0 8 -4 15 -10 15 -28 0 -4 29 41 50 28 14 46 26 40 28
-6 2 -11 17 -11 33 0 27 -2 29 -40 29 -22 0 -40 5 -40 10 0 6 -13 10 -30 10
-25 0 -30 4 -30 25 0 29 -14 32 -37 9 -14 -13 -14 -17 -2 -25 9 -7 4 -7 -16
-3 -16 4 -31 11 -33 16 -6 14 -52 9 -52 -6 0 -17 -49 -25 -118 -18 -35 3 -52
9 -52 18 0 8 -11 14 -25 14 -20 0 -25 -5 -25 -25 0 -16 -6 -25 -15 -25 -8 0
-15 -7 -15 -15 0 -8 -7 -15 -15 -15 -8 0 -15 4 -15 9 0 5 -10 11 -22 13 -19 2
-10 11 47 45 39 24 62 43 53 43 -10 0 -18 7 -18 15 0 8 -7 15 -15 15 -8 0 -15
-7 -15 -15 0 -8 -7 -15 -15 -15 -8 0 -15 -7 -15 -15 0 -9 -9 -15 -25 -15 -16
0 -25 6 -25 15 0 8 -9 15 -20 15 -11 0 -20 -7 -20 -15 0 -8 -4 -15 -10 -15 -5
0 -10 -7 -10 -15 0 -10 -10 -15 -30 -15 -16 0 -30 -4 -30 -10 0 -5 -18 -10
-40 -10 -22 0 -40 -4 -40 -10 0 -5 -13 -10 -30 -10 -16 0 -30 -4 -30 -10 0 -5
-18 -10 -40 -10 -22 0 -40 -4 -40 -10 0 -5 -7 -10 -15 -10 -8 0 -15 -7 -15
-15 0 -10 -10 -15 -27 -15 -27 0 -27 0 10 25 20 14 37 28 37 30 0 14 -51 2
-72 -18 -47 -42 -68 -57 -78 -57 -6 0 -10 -10 -10 -21 0 -20 1 -20 24 -6 23
15 24 15 30 -8 4 -14 11 -25 16 -25 6 0 10 -18 10 -40 0 -27 4 -40 14 -40 20
0 45 -32 29 -37 -7 -3 -13 -16 -13 -29 0 -20 -5 -24 -30 -24 -16 0 -30 -5 -30
-11 0 -16 -25 -37 -54 -45 -14 -3 -26 -10 -26 -15 0 -5 -9 -9 -21 -9 -11 0
-17 4 -14 10 3 6 1 10 -4 10 -6 0 -11 7 -11 16 0 14 -13 16 -82 14 -102 -3
-111 -2 -104 9 4 5 -28 9 -74 8 -44 0 -80 -4 -80 -9 0 -4 -7 -8 -15 -8 -8 0
-15 7 -15 15 0 8 -7 15 -16 15 -14 0 -14 3 -4 15 11 13 -4 15 -124 15 -114 0
-136 2 -136 15 0 11 -11 15 -37 15 l-38 1 23 18 c22 19 31 61 12 61 -5 0 -10
7 -10 15 0 10 -10 15 -30 15 -16 0 -30 4 -30 9 0 5 -13 12 -30 16 -16 4 -30
11 -30 16 0 5 -7 9 -15 9 -9 0 -12 6 -9 15 5 11 -2 15 -26 15 -28 0 -32 3 -27
22 8 28 -9 48 -39 48 -16 0 -24 6 -24 16 0 9 -11 27 -25 40 -14 13 -25 28 -25
34 0 5 -13 10 -30 10 -30 0 -42 21 -20 35 23 14 7 25 -40 25 -27 0 -50 4 -50
9 0 6 -15 11 -32 13 -20 2 -32 8 -31 16 2 6 -1 12 -7 12 -18 0 -50 -34 -50
-53 0 -16 3 -17 15 -7 13 11 15 8 15 -19 0 -21 -5 -31 -15 -31 -10 0 -15 -10
-15 -30 0 -16 -4 -30 -10 -30 -5 0 -10 -7 -10 -16 0 -11 -8 -14 -32 -12 -20 2
-32 8 -31 16 2 7 -8 12 -27 12 -20 0 -30 5 -30 15 0 12 -13 15 -55 15 -52 0
-55 1 -55 25 0 25 -1 25 -65 23 -46 -2 -68 1 -74 10 -6 11 -101 31 -149 32 -7
0 -11 4 -8 9 14 22 -109 22 -124 0 -3 -4 -19 -11 -35 -15 l-29 -7 17 26 c21
32 21 37 2 37 -8 0 -15 -5 -15 -11 0 -16 -25 -37 -54 -45 -20 -5 -26 -2 -26
10 0 11 -9 16 -29 16 -16 0 -34 7 -41 15 -8 9 -30 15 -56 15 -32 0 -44 4 -44
15 0 10 -10 15 -30 15 -20 0 -30 5 -30 15 0 8 -4 15 -10 15 -5 0 -10 7 -10 15
0 8 -7 15 -15 15 -8 0 -15 5 -15 10 0 6 -7 10 -15 10 -9 0 -12 6 -9 15 5 13
-6 15 -70 15 -72 0 -76 1 -76 23 0 12 7 33 16 45 9 14 11 22 4 22 -14 0 -40
25 -40 39 0 6 5 11 10 11 6 0 10 7 10 15 0 8 -4 15 -10 15 -5 0 -10 7 -10 15
0 9 -9 15 -21 15 -15 0 -19 5 -15 15 3 8 -1 21 -9 29 -8 8 -15 19 -15 25 0 6
-7 11 -15 11 -8 0 -15 7 -15 15 0 8 -7 15 -15 15 -11 0 -15 11 -15 40 0 22 -4
40 -10 40 -5 0 -10 7 -10 15 0 12 -13 15 -61 15 -33 0 -59 3 -57 8 30 62 44
82 60 82 19 0 25 26 8 32 -6 2 1 15 15 30 14 15 25 32 25 38 0 6 9 29 20 50
16 30 26 40 45 40 16 0 25 6 25 15 0 8 7 15 15 15 11 0 15 12 15 45 0 25 5 45
10 45 6 0 10 9 10 21 0 21 23 70 49 102 13 16 11 17 -35 11 -27 -3 -55 -8 -62
-10 -8 -2 -24 -1 -38 2 -22 6 -24 11 -24 65 l0 59 -40 0 c-43 0 -50 12 -25 46
8 10 15 29 15 42 0 18 -5 22 -30 22 -20 0 -30 5 -30 15 0 8 -7 15 -15 15 -8 0
-15 -4 -15 -10 0 -5 -7 -10 -15 -10 -10 0 -15 10 -15 34 0 19 -4 36 -8 38 -5
2 -12 20 -15 41 -4 28 -2 39 9 44 19 7 18 49 -1 57 -8 3 -15 12 -15 20 0 10 6
13 15 10 9 -4 15 0 15 10 0 9 7 16 15 16 8 0 15 7 15 15 0 11 12 15 45 15 41
0 45 2 45 25 0 24 -3 25 -61 25 -61 0 -61 0 -47 23 29 44 78 136 78 146 0 6
-7 8 -15 5 -9 -4 -15 0 -15 10 0 9 -6 16 -14 16 -9 0 -15 26 -21 98 -5 53 -8
111 -7 127 13 228 13 255 3 255 -6 0 -11 6 -11 14 0 8 -8 22 -17 32 -11 11
-17 31 -17 56 1 36 0 39 -22 34 -12 -3 -26 -2 -29 4 -10 15 5 52 19 47 8 -3
10 6 8 29 -3 26 0 34 12 34 12 0 16 10 16 41 0 47 18 69 54 69 37 0 76 65 76
125 0 25 -4 45 -10 45 -5 0 -10 14 -10 30 0 20 -5 30 -15 30 -12 0 -15 13 -15
55 0 54 0 55 -30 55 -16 0 -30 5 -30 11 0 19 -28 38 -58 41 -28 2 -30 5 -25
30 5 27 4 28 -39 28 l-44 0 1 67 c0 44 4 68 13 70 6 3 12 -2 12 -11 0 -24 27
-19 34 7 9 34 8 37 -13 37 -16 0 -19 7 -19 45 0 26 6 51 14 59 8 8 14 19 14
25 0 6 7 11 15 11 8 0 15 7 15 15 0 8 4 15 10 15 19 0 70 60 70 83 0 14 7 30
15 37 8 7 15 21 15 31 0 9 7 24 15 33 8 8 15 19 15 24 0 6 7 12 15 16 20 7 20
56 0 56 -11 0 -15 11 -15 40 0 38 -2 40 -30 40 -20 0 -30 5 -30 15 0 8 -4 15
-10 15 -5 0 -10 7 -10 15 0 8 5 15 10 15 6 0 10 7 10 15 0 8 7 15 15 15 8 0
15 -7 15 -15 0 -8 7 -15 15 -15 8 0 15 -7 15 -15 0 -12 14 -15 69 -15 52 0 70
4 75 15 3 9 19 15 41 15 19 0 35 5 35 10 0 6 7 10 15 10 8 0 15 -4 15 -10 0
-5 7 -10 15 -10 8 0 15 5 15 10 0 6 13 10 29 10 16 0 36 7 45 15 8 8 19 15 25
15 6 0 11 7 11 15 0 14 8 16 78 16 17 0 32 4 32 9 0 6 20 10 45 10 25 0 45 5
45 10 0 6 7 10 15 10 8 0 15 4 15 10 0 12 67 30 86 23 8 -3 20 0 27 5 7 6 47
16 88 22 40 7 134 25 207 41 144 32 232 36 232 11 0 -11 11 -13 45 -10 45 3
45 3 39 -24 -5 -24 -2 -28 15 -28 12 0 21 4 21 10 0 5 11 12 25 16 14 3 25 10
25 15 0 5 7 9 15 9 8 0 15 5 15 10 0 13 61 13 94 0 14 -5 44 -11 66 -12 22 -2
40 -7 40 -11 0 -20 34 -39 71 -41 l41 -2 -7 35 c-11 63 -26 101 -41 101 -19 0
-18 39 1 46 26 10 16 21 -15 16 -23 -3 -30 0 -30 12 0 9 -7 16 -15 16 -8 0
-15 7 -15 15 0 8 -8 15 -17 15 -15 0 -14 2 3 19 11 10 47 38 80 62 56 42 183
158 302 277 46 46 55 50 68 38 8 -8 14 -19 14 -25 0 -6 7 -11 15 -11 9 0 15
-9 15 -25 0 -16 -6 -25 -15 -25 -9 0 -15 -9 -15 -21 0 -19 3 -19 39 10 21 17
48 31 60 31 14 0 21 6 21 19 0 11 4 23 10 26 5 3 10 15 10 27 0 15 5 19 19 15
12 -3 27 3 37 14 9 10 26 19 36 19 20 0 48 22 48 38 0 5 18 25 39 43 36 31 39
39 46 102 4 44 3 67 -4 67 -6 0 -15 18 -21 40 -6 22 -15 40 -20 40 -6 0 -10
24 -10 54 0 56 16 116 31 116 5 0 9 25 9 55 0 30 -4 55 -10 55 -5 0 -12 15
-16 34 -3 19 -12 37 -20 40 -8 3 -14 14 -14 24 0 16 -6 19 -30 16 -20 -2 -30
1 -29 9 1 6 1 26 0 42 l-2 30 -16 -30 c-9 -16 -38 -91 -63 -165 -106 -307
-191 -452 -367 -621 -242 -233 -594 -384 -1078 -461 -136 -21 -167 -22 -1200
-27 -583 -3 -1127 -4 -1210 0 -82 3 352 6 965 7 1269 2 1359 7 1680 78 687
154 1131 576 1215 1154 31 214 26 496 -10 672 -48 228 -164 451 -302 581 l-30
28 -5 -25 c-4 -19 3 -33 29 -58 46 -44 136 -180 172 -259 79 -175 111 -343
111 -586 0 -170 -3 -193 -26 -193 -8 0 -26 -7 -39 -16 -14 -9 -25 -13 -25 -9
0 4 -7 2 -15 -5 -8 -7 -15 -9 -15 -5 0 4 -8 1 -17 -6 -15 -12 -16 -12 -8 1 7
12 6 13 -6 3 -8 -6 -18 -12 -24 -12 -5 -1 -10 -5 -10 -10 0 -5 -31 -43 -69
-83 -42 -44 -74 -89 -83 -114 -14 -40 -154 -218 -229 -291 -85 -82 -236 -171
-424 -250 -91 -38 -265 -81 -375 -93 -44 -5 -139 -16 -212 -24 -72 -9 -156
-14 -185 -11 -29 2 -441 0 -915 -6 -853 -10 -863 -9 -964 11 -113 23 -154 40
-161 67 -5 19 13 145 25 176 4 9 10 25 14 35 7 20 17 165 15 237 -1 28 -1 101
-1 164 1 113 -17 231 -34 231 -5 0 -6 10 -2 23 7 22 17 192 18 322 1 60 -2 74
-21 93 -12 12 -24 33 -28 47 -3 14 -10 25 -14 25 -15 0 -22 40 -25 149 -1 59
-8 117 -14 129 -14 26 -14 99 -1 107 6 3 10 19 10 36 0 16 5 29 10 29 6 0 10
11 10 25 0 14 4 25 8 25 9 0 42 97 42 122 0 9 6 18 13 21 14 5 47 89 65 167 6
25 13 52 17 61 5 13 -2 18 -28 23 -19 4 -46 15 -58 25 -13 10 -35 21 -49 25
-14 4 -42 14 -62 23 l-38 16 0 184 0 183 32 0 c30 0 31 0 13 20 -10 11 -30 20
-44 20 -35 0 -59 15 -38 23 23 9 662 10 744 2 61 -6 74 -5 79 8 7 20 0 33
-104 178 -123 172 -284 409 -278 409 4 0 418 -585 424 -602 2 -4 -19 -8 -46
-8 -27 0 -64 -3 -81 -6 -30 -6 -31 -8 -15 -25 14 -15 32 -19 94 -19 121 0 130
31 45 158 l-55 82 45 0 c51 0 108 31 125 68 15 33 21 139 11 199 -8 51 -16 65
-112 191 -31 41 -147 230 -158 257 -4 9 -68 103 -136 198 -69 97 -123 174
-141 203 -10 18 -37 58 -59 90 -52 77 -78 139 -91 219 -11 62 -17 86 -27 93
-6 4 -58 32 -116 62 l-106 55 -3 173 -2 172 41 0 42 0 -22 19 c-11 10 -40 22
-64 26 l-42 8 35 8 c19 5 451 11 960 14 509 3 937 8 952 11 32 6 344 -11 471
-27 179 -22 434 -107 658 -219 289 -145 392 -230 527 -434 123 -187 198 -358
222 -509 5 -34 14 -126 20 -204 5 -77 13 -148 16 -157 8 -20 24 -16 110 25 33
16 69 29 80 29 33 0 114 -33 114 -47 0 -7 6 -13 14 -13 8 0 17 -11 20 -24 3
-14 16 -28 28 -32 32 -10 48 -29 48 -59 0 -23 4 -26 28 -25 15 1 41 2 57 1
l30 -1 0 -67 c0 -44 4 -68 13 -70 14 -5 16 -33 2 -33 -5 0 -10 -7 -10 -16 0
-12 -6 -15 -21 -11 -19 5 -21 3 -15 -25 3 -17 6 -43 6 -59 0 -16 3 -28 8 -28
4 1 17 1 28 0 20 -1 21 -5 16 -71 -4 -60 -2 -70 12 -70 9 0 16 -7 16 -15 0 -8
7 -15 15 -15 8 0 15 -4 15 -10 0 -5 6 -10 14 -10 8 0 21 -6 28 -12 7 -7 25
-19 41 -27 15 -8 27 -18 27 -23 0 -4 7 -8 15 -8 10 0 15 -11 15 -35 0 -24 -5
-35 -15 -35 -11 0 -15 -12 -15 -46 0 -37 -3 -45 -15 -40 -10 4 -15 -1 -15 -14
0 -11 7 -20 15 -20 12 0 14 -8 9 -38 -6 -36 -4 -40 26 -52 41 -17 46 -9 54 79
5 59 -1 589 -8 651 -2 14 -4 40 -4 58 -1 21 -7 32 -17 32 -10 0 -15 10 -15 30
0 19 5 30 14 30 28 0 35 64 41 358 4 163 8 302 10 308 2 9 -10 533 -20 844 -3
86 8 150 26 150 6 0 8 4 5 8 -2 4 5 8 17 8 12 0 122 1 245 2 l222 2 0 35 c0
39 -28 75 -60 75 -16 0 -20 7 -20 30 0 27 -3 30 -30 30 -16 0 -30 5 -30 10 0
6 -8 10 -17 10 -11 1 -3 10 22 25 26 16 41 21 46 13 10 -17 39 -1 39 21 0 11
9 23 21 26 12 4 30 14 40 23 23 20 26 62 4 62 -8 0 -15 7 -15 15 0 8 -7 15
-15 15 -10 0 -15 10 -15 26 0 29 -24 53 -52 54 -28 0 -20 60 8 60 8 0 14 7 14
15 0 10 10 15 30 15 20 0 30 5 30 15 0 8 7 15 15 15 8 0 15 3 15 8 0 4 18 18
40 32 22 14 40 28 40 32 0 5 7 8 15 8 8 0 15 5 15 11 0 15 26 39 43 39 12 0
14 -9 10 -40 -5 -36 -3 -40 16 -40 18 0 21 6 21 45 0 41 2 45 25 45 16 0 25 6
25 15 0 8 7 15 15 15 11 0 15 12 15 45 0 42 2 46 38 62 32 16 37 23 40 56 2
20 7 35 13 32 5 -4 9 14 9 39 0 25 5 46 10 46 6 0 10 11 10 25 0 14 5 25 10
25 6 0 10 7 10 15 0 8 -4 15 -10 15 -5 0 -10 14 -10 30 0 17 5 30 10 30 6 0
10 7 10 15 0 9 9 15 23 15 25 0 87 49 87 68 0 7 7 12 15 12 8 0 15 7 15 15 0
8 -7 15 -15 15 -8 0 -15 7 -15 15 0 8 -8 15 -17 15 -12 1 -9 6 12 17 35 19 55
38 55 52 0 6 9 11 20 11 11 0 20 -5 20 -11 0 -5 5 -7 10 -4 6 3 10 -2 10 -12
0 -10 9 -26 20 -36 22 -18 70 -23 70 -7 0 6 7 10 14 10 8 0 27 11 42 25 15 14
33 25 40 25 8 0 14 5 14 11 0 6 7 9 15 5 8 -3 15 -1 15 5 0 16 25 37 53 44 29
8 87 -21 87 -42 0 -7 5 -13 10 -13 6 0 10 -13 10 -29 0 -16 7 -36 15 -45 8 -8
15 -22 15 -30 0 -10 6 -13 15 -10 9 4 15 0 15 -10 0 -9 7 -16 15 -16 8 0 15
-7 15 -15 0 -15 16 -20 58 -16 12 1 22 -3 22 -9 0 -5 7 -10 15 -10 12 0 15
-13 15 -60 0 -33 -4 -60 -10 -60 -5 0 -10 -7 -10 -15 0 -10 -10 -15 -30 -15
-20 0 -30 -5 -30 -15 0 -9 -6 -12 -15 -9 -11 5 -15 -1 -15 -24 0 -17 5 -32 10
-34 6 -2 13 -21 17 -43 3 -22 14 -52 24 -67 11 -14 19 -33 19 -42 0 -9 9 -25
20 -36 27 -27 40 -62 40 -107 0 -35 28 -73 54 -73 16 0 126 -102 126 -117 0
-6 12 -22 28 -35 15 -13 33 -35 41 -51 8 -15 25 -34 37 -42 29 -19 76 -66 90
-90 12 -21 26 -30 67 -45 20 -7 27 -16 27 -35 0 -14 4 -25 9 -25 4 0 20 -11
35 -25 15 -14 34 -25 42 -25 7 0 14 -9 14 -20 0 -11 -7 -20 -15 -20 -12 0 -15
-13 -15 -55 0 -51 2 -55 24 -55 12 0 38 5 56 12 26 9 35 9 38 0 2 -8 38 -12
112 -12 l108 0 14 30 c13 31 48 42 48 15 0 -12 16 -15 80 -15 64 0 80 -3 80
-15 0 -10 10 -15 30 -15 20 0 30 5 30 15 0 8 7 15 15 15 8 0 15 -7 15 -15 0
-9 9 -15 25 -15 16 0 25 6 25 15 0 10 10 15 30 15 23 0 30 -4 30 -20 0 -11 3
-20 8 -20 24 -1 35 -24 43 -96 7 -73 4 -179 -21 -621 -6 -119 -5 -219 6 -375
19 -293 16 -277 64 -271 33 5 40 3 40 -11 0 -11 9 -16 30 -16 20 0 30 -5 30
-15 0 -9 9 -15 25 -15 21 0 25 5 25 30 0 20 5 30 15 30 8 0 15 -9 15 -19 0
-18 5 -19 55 -14 38 4 55 2 55 -6 0 -6 13 -11 29 -11 16 0 36 -7 45 -15 8 -8
21 -15 29 -15 13 0 43 -21 78 -55 12 -12 27 -14 58 -9 22 4 41 10 41 15 0 5
14 9 30 9 17 0 30 -4 30 -9 0 -18 76 -25 196 -18 l46 2 -6 44 c-3 24 -6 54 -6
67 0 15 -10 29 -30 41 -29 17 -41 43 -20 43 15 0 12 19 -4 36 -17 16 -36 19
-36 4 0 -5 -20 -10 -45 -10 -25 0 -45 5 -45 10 0 6 9 10 19 10 14 0 18 5 14
20 -3 11 -11 20 -18 20 -7 0 -16 7 -19 16 -8 21 -8 34 2 33 20 -3 32 2 32 14
0 8 18 19 41 26 37 11 42 10 58 -8 10 -12 23 -21 30 -21 6 0 11 -17 11 -40 0
-29 4 -40 15 -40 8 0 15 5 15 10 0 6 7 10 15 10 8 0 15 7 15 15 0 8 5 15 11
15 13 0 33 20 42 43 4 10 17 17 32 17 14 0 25 5 25 10 0 6 7 10 15 10 8 0 15
5 15 10 0 6 7 10 15 10 11 0 15 12 15 45 0 33 -4 45 -15 45 -10 0 -15 10 -15
30 0 28 3 30 35 30 22 0 43 8 56 21 14 14 28 19 42 15 12 -3 43 -6 70 -6 35 0
47 -4 47 -15 0 -12 16 -15 85 -15 69 0 85 -3 85 -15 0 -8 7 -15 15 -15 8 0 15
-7 15 -15 0 -8 7 -15 15 -15 8 0 15 -5 15 -11 0 -22 30 -39 68 -39 22 0 42 5
44 11 3 9 13 9 41 0 31 -11 37 -17 37 -42 0 -18 5 -29 13 -29 13 0 37 -60 37
-94 0 -9 4 -16 10 -16 5 0 7 -7 4 -15 -5 -12 -25 -15 -90 -15 l-84 0 0 -31 0
-32 -45 6 c-37 5 -45 4 -45 -9 0 -18 -23 -44 -39 -44 -6 0 -11 -6 -11 -14 0
-8 -15 -15 -40 -19 -39 -5 -70 -26 -70 -46 0 -6 -4 -11 -9 -11 -5 0 -12 -13
-16 -29 -4 -20 -11 -28 -21 -24 -8 3 -14 0 -14 -6 0 -6 -7 -11 -15 -11 -8 0
-15 -4 -15 -9 0 -4 -33 -20 -74 -35 -74 -26 -126 -33 -126 -18 0 11 -86 52
-110 52 -11 0 -20 -7 -20 -15 0 -8 -7 -15 -15 -15 -8 0 -15 -7 -15 -15 0 -8 5
-15 10 -15 6 0 10 -7 10 -15 0 -8 -4 -15 -10 -15 -22 0 -8 -29 20 -42 17 -7
30 -17 30 -21 0 -15 27 -36 53 -42 14 -4 28 -13 31 -21 7 -19 51 -18 70 1 17
17 36 20 36 5 0 -5 7 -10 15 -10 8 0 15 5 15 10 0 6 7 10 15 10 8 0 15 7 15
15 0 8 7 15 15 15 8 0 15 7 15 15 0 17 -4 16 75 21 33 2 61 8 63 14 2 5 21 10
43 10 21 0 39 5 39 10 0 6 10 10 23 10 65 1 103 44 123 143 25 117 25 117 49
117 34 0 55 -10 55 -26 0 -10 11 -12 45 -7 28 3 45 2 45 -4 0 -6 18 -13 40
-17 22 -3 40 -11 40 -16 0 -6 14 -10 30 -10 17 0 30 -4 30 -8 0 -5 19 -15 43
-22 23 -7 51 -16 62 -21 11 -4 39 -11 63 -14 23 -4 49 -13 56 -21 8 -7 33 -21
56 -30 36 -15 48 -15 96 -4 42 10 59 11 77 1 12 -7 34 -19 50 -27 15 -8 35
-26 43 -40 9 -13 23 -24 30 -24 8 0 14 -4 14 -10 0 -5 4 -10 9 -10 12 0 29 73
38 170 12 136 3 1339 -11 1405 -5 22 -1 37 13 55 18 22 28 25 133 31 255 16
318 22 318 30 0 4 51 8 113 8 61 0 153 1 202 3 86 2 121 -2 147 -18 22 -14
415 -18 433 -5 19 14 123 6 142 -11 10 -8 36 -21 58 -28 72 -23 87 -30 83 -43
-7 -19 -79 -39 -133 -36 -80 4 -146 3 -209 -3 -51 -6 -62 -10 -74 -33 -17 -33
-35 -309 -27 -420 3 -44 10 -276 15 -515 9 -367 8 -464 -5 -620 -10 -127 -13
-245 -9 -375 3 -104 1 -233 -4 -285 -6 -64 -10 278 -11 1055 -1 633 -4 1167
-7 1187 -6 32 -9 35 -24 26 -15 -10 -19 -34 -25 -175 -4 -90 -10 -163 -14
-163 -4 0 -22 -21 -40 -46 -21 -28 -50 -53 -80 -67 -38 -19 -46 -27 -49 -53
-3 -28 0 -32 28 -38 61 -12 69 -38 45 -152 -5 -21 -1 -41 14 -67 12 -21 21
-49 21 -62 0 -14 5 -25 10 -25 6 0 10 -18 10 -40 0 -22 11 -65 25 -96 25 -55
25 -61 25 -310 0 -252 0 -254 -22 -268 -13 -8 -42 -17 -65 -21 -23 -4 -47 -13
-53 -20 -11 -14 -9 -131 5 -272 7 -61 -4 -103 -26 -103 -6 0 -27 -16 -46 -35
-19 -19 -38 -35 -42 -35 -16 0 -31 -54 -31 -110 0 -32 -7 -89 -16 -127 -19
-80 -13 -160 16 -216 11 -21 20 -46 20 -57 0 -10 5 -30 11 -44 9 -19 9 -32 -1
-55 -12 -31 -12 -33 24 -146 9 -27 16 -74 16 -102 0 -29 4 -53 10 -53 5 0 12
-16 16 -37 4 -20 16 -47 28 -61 26 -30 104 -69 134 -66 l22 1 0 -201 c-1 -219
-8 -280 -35 -300 -15 -10 -17 -22 -12 -62 3 -26 10 -50 16 -52 6 -2 11 -12 11
-22 0 -10 5 -22 10 -25 22 -14 5 -96 -25 -117 -5 -4 -1 -14 11 -25 20 -17 22
-32 28 -263 7 -230 8 -246 28 -262 27 -23 45 -23 58 2 9 17 8 20 -10 20 -20 0
-20 0 -18 1008 1 674 4 915 8 727 5 -188 13 -310 24 -370 20 -110 33 -157 46
-165 5 -3 13 -20 16 -37 5 -28 4 -31 -13 -27 -35 10 -46 -87 -42 -391 2 -148
3 -358 2 -465 -2 -112 1 -201 7 -210 8 -13 60 -15 378 -14 324 1 378 3 436 19
48 13 70 15 74 7 11 -16 248 -31 427 -26 258 7 293 14 247 51 -13 11 -10 11
14 -1 32 -16 44 -13 44 11 0 7 -9 13 -20 13 -11 0 -20 5 -20 11 0 25 -30 39
-82 39 -38 0 -49 -3 -38 -10 13 -8 12 -10 -2 -10 -14 0 -18 9 -18 40 l0 40 44
0 c24 0 46 -4 48 -9 2 -5 27 -12 56 -16 44 -6 52 -4 52 9 0 9 7 16 15 16 8 0
15 -4 15 -10 0 -5 14 -10 30 -10 17 0 30 5 30 10 0 6 9 10 20 10 11 0 20 7 20
15 0 8 8 15 18 15 47 0 78 263 39 324 -10 15 -16 34 -13 41 2 7 0 29 -6 48 -9
30 -7 42 11 79 11 24 21 50 21 56 0 7 7 12 15 12 8 0 15 7 15 15 0 8 7 15 15
15 12 0 15 13 15 55 0 30 5 55 10 55 6 0 10 7 10 15 0 8 7 15 15 15 9 0 15 9
15 25 0 24 25 36 32 15 2 -6 18 -12 36 -14 30 -4 88 -34 115 -60 6 -6 24 -17
40 -23 15 -7 27 -17 27 -23 0 -5 7 -10 15 -10 8 0 15 -4 15 -10 0 -5 7 -10 15
-10 9 0 46 -20 83 -45 37 -25 61 -45 54 -45 -6 0 -12 -7 -12 -15 0 -8 -7 -15
-15 -15 -8 0 -15 -3 -16 -7 0 -5 -2 -47 -5 -95 -3 -85 -3 -89 32 -147 22 -36
41 -58 49 -55 7 3 19 -2 28 -10 9 -9 20 -16 26 -16 6 0 11 -7 11 -15 0 -21 47
-19 59 3 6 9 11 13 11 8 0 -16 40 32 40 49 0 8 6 15 13 15 8 0 29 15 48 33 19
19 50 44 69 57 45 31 60 46 60 59 0 6 4 11 8 11 12 0 32 71 32 114 0 22 4 35
10 31 6 -4 10 5 10 19 0 20 5 26 23 26 12 0 32 3 45 6 19 6 22 3 22 -25 0 -21
5 -31 15 -31 10 0 15 10 15 28 0 21 7 32 27 43 15 8 35 22 45 32 10 9 25 17
33 17 18 0 68 -76 92 -140 14 -38 89 -176 140 -259 20 -31 35 -15 35 41 1 34
-17 83 -80 226 -45 100 -82 184 -82 186 0 3 -28 65 -61 138 -74 161 -130 291
-126 294 2 2 89 -181 195 -406 l192 -409 0 -815 0 -816 565 0 565 0 0 846 0
845 146 307 c164 342 331 693 436 912 38 80 97 202 130 273 34 70 63 125 65
123 2 -2 -26 -66 -62 -142 -37 -77 -133 -285 -215 -464 -81 -179 -191 -415
-243 -525 -53 -111 -104 -223 -115 -250 -11 -28 -38 -88 -61 -134 -41 -84 -53
-152 -30 -166 15 -10 31 16 79 125 23 52 62 127 86 167 25 39 64 116 88 172
24 55 53 117 64 138 12 21 37 70 56 108 39 79 124 175 156 175 5 0 10 19 11
43 0 23 4 51 8 61 7 17 9 17 29 -9 l22 -28 0 37 c0 32 3 36 25 36 15 0 25 6
25 14 0 16 30 26 78 26 33 0 62 18 62 39 0 6 14 11 30 11 17 0 30 5 30 12 0 9
3 9 12 0 18 -18 68 -15 68 3 0 8 7 15 15 15 8 0 15 7 15 15 0 10 10 15 30 15
26 0 30 -4 30 -26 0 -26 48 -84 69 -84 6 0 11 -16 11 -36 0 -28 -3 -35 -15
-30 -11 4 -15 -2 -15 -25 0 -24 -4 -30 -15 -25 -9 3 -15 0 -15 -10 0 -8 7 -17
15 -21 12 -4 15 -18 14 -57 -2 -45 -7 -56 -44 -91 -46 -46 -99 -85 -115 -85
-5 0 -10 -11 -10 -24 0 -13 -6 -26 -12 -29 -9 -2 -13 -27 -12 -78 1 -59 7 -85
28 -126 28 -57 33 -112 15 -173 -8 -27 -8 -51 0 -92 11 -51 40 -103 55 -97 4
1 52 -1 108 -5 79 -6 120 -14 176 -37 84 -33 131 -36 173 -12 28 17 42 63 19
63 -5 0 -10 20 -10 45 0 48 0 48 62 45 37 -1 68 16 68 39 0 15 34 31 67 31 16
0 48 -9 71 -20 43 -21 92 -27 92 -11 0 5 14 12 30 16 17 4 30 11 30 16 0 5 7
9 15 9 8 0 15 5 15 11 0 6 8 8 19 4 10 -3 50 6 88 20 75 27 161 31 170 8 3 -7
16 -13 29 -13 19 0 24 -5 24 -25 0 -23 4 -25 43 -25 23 0 59 -3 80 -6 29 -5
37 -3 37 9 0 8 -5 17 -12 19 -9 3 -8 15 4 49 9 24 19 73 23 108 6 56 40 142
64 161 3 3 14 23 24 45 10 22 29 56 42 75 25 37 57 151 58 211 1 35 -20 69
-42 69 -6 0 -11 6 -11 13 0 8 -3 8 -8 1 -11 -15 -102 -5 -102 12 0 8 -7 14
-15 14 -8 0 -15 7 -15 15 0 9 -6 12 -15 9 -11 -5 -15 1 -15 21 0 36 -22 55
-62 55 -48 0 -78 10 -78 26 0 8 -5 14 -11 14 -6 0 -9 -7 -5 -15 4 -12 -6 -15
-59 -15 -50 0 -65 -3 -65 -14 0 -19 27 -46 46 -46 8 0 14 -4 14 -10 0 -5 7
-10 15 -10 10 0 15 -10 15 -30 0 -16 5 -30 10 -30 6 0 10 -7 10 -16 0 -14 -10
-16 -67 -12 -39 2 -68 9 -71 16 -2 7 -15 12 -28 12 -14 0 -24 6 -24 15 0 8 -6
12 -14 9 -16 -6 -46 21 -46 42 0 8 -7 14 -15 14 -8 0 -15 7 -15 15 0 8 -5 15
-11 15 -7 0 -19 8 -28 18 -9 11 -33 25 -55 32 -72 23 -73 27 -68 164 4 107 2
124 -13 140 -15 15 -17 29 -11 100 5 71 3 85 -12 100 -41 40 -68 57 -106 67
-23 6 -49 15 -58 20 -10 5 -27 9 -38 9 -11 0 -20 6 -20 13 0 8 -12 20 -27 28
-40 20 -65 46 -50 53 9 3 9 7 1 13 -6 4 -20 32 -30 61 -18 49 -18 55 -2 98 13
37 14 51 5 67 -9 15 -9 21 1 24 15 6 16 34 0 68 -9 21 -8 32 5 61 9 19 17 43
17 54 0 10 4 20 8 22 4 2 18 17 30 35 16 23 32 33 55 35 26 2 32 7 33 28 1 46
4 51 34 62 19 6 32 19 36 34 3 13 10 24 15 24 5 0 9 7 9 15 0 8 -7 15 -15 15
-8 0 -15 7 -15 15 0 8 -4 15 -10 15 -16 0 -12 47 5 54 21 8 19 46 -2 47 -11 0
-13 3 -5 6 6 2 12 11 12 19 0 8 6 14 14 14 8 0 19 14 25 30 9 27 8 30 -10 30
-19 0 -19 1 -5 16 18 18 21 54 5 54 -7 0 -5 10 5 25 9 14 14 30 11 34 -3 5 2
16 10 24 8 9 15 20 15 26 0 5 10 17 22 25 12 9 17 16 10 16 -7 0 -10 5 -7 10
3 6 2 10 -4 10 -12 0 -11 59 1 66 5 4 0 13 -11 21 -12 8 -21 19 -21 25 0 6 -7
16 -16 23 -14 9 -14 16 -5 33 6 12 8 22 4 22 -16 0 -20 104 -8 208 4 39 4 72
0 72 -20 0 -91 -111 -166 -259 -34 -67 -63 -120 -65 -118 -2 2 23 61 56 131
34 70 81 172 105 227 41 93 43 100 25 109 -16 8 -24 -2 -66 -83 -30 -57 -50
-85 -52 -74 -2 9 -10 17 -18 17 -8 0 -14 5 -14 11 0 11 -113 8 -155 -3 -166
-47 -265 -93 -265 -123 0 -6 -8 -20 -17 -31 -27 -30 -58 -75 -78 -113 -9 -19
-26 -44 -37 -55 -11 -12 -31 -45 -44 -73 -14 -29 -43 -72 -64 -94 -22 -23 -37
-46 -34 -51 3 -4 0 -8 -5 -8 -6 0 -11 -6 -11 -14 0 -8 -8 -22 -17 -32 -10 -9
-18 -23 -19 -30 -1 -8 -9 -21 -18 -30 -9 -8 -16 -23 -16 -33 0 -9 -9 -23 -20
-31 -11 -8 -30 -39 -41 -70 -11 -30 -25 -60 -30 -67 -7 -8 -7 -18 0 -32 15
-27 14 -57 -4 -121 -9 -30 -17 -65 -19 -77 -2 -13 -9 -30 -17 -39 -17 -21 -38
-79 -45 -129 -4 -21 -12 -48 -19 -60 -7 -11 -16 -35 -20 -54 -4 -19 -18 -56
-31 -84 -12 -28 -21 -54 -18 -59 3 -4 1 -8 -4 -8 -5 0 -9 -6 -9 -12 0 -17 -60
-181 -89 -244 -13 -28 -24 -59 -24 -69 0 -10 -24 -63 -54 -119 -30 -56 -62
-126 -72 -156 -18 -56 -59 -125 -89 -150 -31 -26 -145 -283 -145 -328 0 -7
-11 -42 -25 -77 -22 -55 -31 -104 -26 -152 0 -7 8 -13 16 -13 8 0 15 -9 15
-20 0 -11 7 -23 15 -26 8 -4 15 -12 15 -20 0 -8 5 -14 10 -14 6 0 10 -5 10
-11 0 -15 39 -49 57 -49 7 0 13 -4 13 -9 0 -5 12 -12 26 -15 32 -8 32 -6 -64
-209 l-74 -158 2 -262 c1 -144 2 -513 1 -819 l-1 -558 -515 0 -515 0 0 105 c0
58 4 105 9 105 5 0 11 -4 13 -9 2 -6 55 -11 118 -13 103 -3 117 -1 138 17 27
24 30 64 5 66 -10 1 -72 2 -138 3 -66 1 -126 5 -132 9 -10 6 -13 149 -13 655
l0 647 -64 140 -63 140 26 3 c14 2 30 -3 37 -12 12 -17 104 -23 104 -7 0 5 13
12 29 16 47 10 63 57 43 130 -6 22 -16 85 -22 140 -9 85 -15 108 -44 155 -19
30 -37 75 -41 100 -4 25 -14 63 -22 85 -7 22 -18 68 -23 104 -7 50 -29 104
-108 261 -77 152 -101 209 -107 255 -3 31 -15 73 -26 92 -11 19 -17 44 -15 57
2 14 -7 39 -25 66 -27 40 -34 67 -30 112 3 25 -43 121 -77 159 -54 63 -91 127
-101 172 -6 24 -16 57 -22 73 -6 16 -13 43 -15 59 -5 37 -43 156 -55 171 -8
10 -13 39 -18 94 -1 13 -2 13 -11 0 -8 -12 -10 -10 -9 10 2 66 -69 237 -128
308 -47 55 -116 132 -164 181 -53 54 -69 103 -66 201 l2 64 -105 36 c-114 40
-159 64 -325 178 -104 71 -187 118 -246 141 -16 5 -37 29 -53 57 -14 25 -26
48 -26 49 0 1 19 6 43 9 l42 7 -55 19 c-30 11 -68 19 -83 20 -24 0 -26 -3 -18
-19 13 -24 54 -127 48 -121 -3 3 -27 35 -55 72 -36 48 -47 69 -39 76 44 35 58
36 627 44 800 11 1023 16 1205 28 88 5 387 12 665 15 278 3 595 10 705 16 110
5 317 12 460 14 237 5 436 20 555 43 25 5 76 26 113 48 37 21 85 48 106 59 21
11 46 28 55 38 10 9 22 17 28 17 6 0 19 6 27 14 9 7 45 22 81 32 121 34 288
15 383 -43 20 -13 62 -35 91 -48 30 -14 58 -30 61 -36 4 -6 13 -8 20 -5 7 2
21 -1 31 -8 11 -7 51 -23 89 -36 64 -22 90 -24 320 -26 397 -5 652 -18 1105
-55 201 -17 288 -20 480 -14 324 9 384 12 470 26 67 10 170 9 410 -5 19 -2 42
1 50 4 13 6 265 -3 378 -13 l42 -4 0 4973 0 4974 -12800 0 -12800 0 0 -12800z
m11638 5094 c18 -5 22 -13 22 -45 0 -22 4 -39 10 -39 5 0 10 -26 12 -57 2 -40
7 -57 16 -55 6 1 12 -5 12 -13 0 -10 10 -15 29 -15 16 0 37 -8 46 -17 14 -14
20 -15 38 -4 30 20 197 23 197 5 0 -8 -4 -14 -10 -14 -5 0 -10 -7 -10 -15 0
-8 5 -15 10 -15 6 0 10 -7 10 -15 0 -8 7 -15 15 -15 8 0 15 -7 15 -15 0 -9 9
-15 25 -15 14 0 25 -4 25 -10 0 -5 14 -10 30 -10 20 0 30 -5 30 -15 0 -11 12
-15 45 -15 33 0 45 -4 45 -15 0 -8 5 -15 10 -15 6 0 10 -7 10 -15 0 -8 6 -15
14 -15 8 0 16 -5 18 -12 6 -18 73 -15 92 5 20 20 26 21 63 6 30 -12 77 -16
296 -25 75 -3 137 -9 137 -15 0 -5 7 -9 15 -9 12 0 15 -16 15 -83 l0 -83 43
-15 c29 -11 47 -25 58 -47 9 -17 19 -29 21 -26 3 3 8 -6 12 -20 5 -21 14 -27
46 -32 24 -4 40 -12 40 -20 0 -8 5 -14 10 -14 6 0 10 -13 10 -30 0 -16 3 -30
8 -30 11 0 32 -99 32 -153 0 -33 4 -47 14 -47 7 0 25 -11 40 -25 15 -14 32
-25 37 -25 20 0 79 -67 74 -82 -4 -11 2 -18 22 -23 15 -3 30 -11 33 -15 3 -5
30 -16 60 -23 48 -12 55 -18 58 -41 2 -15 12 -36 23 -47 10 -10 19 -25 19 -32
0 -7 9 -19 20 -27 25 -18 29 -100 5 -100 -8 0 -15 -7 -15 -15 0 -11 -11 -15
-39 -15 -36 0 -40 -3 -46 -30 -4 -16 -10 -30 -15 -30 -13 0 -20 -30 -14 -55 4
-16 16 -26 35 -30 16 -4 29 -11 29 -16 0 -5 43 -9 95 -9 57 0 95 4 95 10 0 17
22 11 41 -11 16 -18 25 -20 56 -14 21 4 64 9 96 10 44 1 57 -2 57 -13 0 -8 6
-12 14 -9 8 3 16 -2 19 -13 4 -15 12 -17 46 -13 33 5 41 3 41 -11 0 -9 4 -16
8 -16 5 0 17 -27 27 -60 l18 -60 62 0 c48 0 67 5 85 20 27 24 50 26 50 5 0 -8
7 -15 15 -15 8 0 15 -7 15 -15 0 -8 5 -15 10 -15 6 0 10 -11 10 -25 0 -33 -74
-108 -123 -124 -19 -7 -38 -18 -41 -26 -3 -8 -12 -15 -20 -15 -8 0 -29 -12
-47 -27 -18 -16 -34 -27 -36 -25 -2 1 -11 2 -20 2 -15 0 -16 -2 -3 -10 13 -9
13 -10 0 -10 -13 0 -13 -1 0 -10 13 -9 13 -10 0 -11 -8 0 0 -7 19 -15 25 -11
32 -20 28 -34 -4 -14 3 -21 24 -29 16 -5 29 -14 29 -19 0 -20 -38 -39 -80 -41
-25 0 -67 -5 -95 -11 -27 -5 -128 -11 -222 -13 l-173 -3 0 57 c0 42 -4 58 -16
63 -8 3 -13 10 -10 15 7 10 -27 51 -43 51 -6 0 -11 18 -11 45 0 41 -2 45 -25
45 -16 0 -25 -6 -25 -15 0 -11 -12 -15 -45 -15 -35 0 -45 -4 -45 -16 0 -12 -6
-15 -25 -10 -21 5 -25 3 -25 -14 0 -18 -4 -20 -42 -14 -24 4 -45 10 -48 14 -3
4 -27 10 -55 13 -27 3 -51 10 -53 16 -6 17 -22 13 -22 -5 0 -8 -4 -12 -10 -9
-6 4 -10 -7 -10 -24 0 -35 -5 -38 -26 -16 -9 8 -29 15 -45 15 -16 0 -29 5 -29
10 0 6 -7 10 -15 10 -8 0 -15 7 -15 15 0 9 -9 15 -25 15 -16 0 -25 6 -25 15 0
8 -7 15 -15 15 -9 0 -15 -9 -15 -25 0 -16 -6 -25 -16 -25 -8 0 -20 -13 -25
-30 -6 -16 -23 -36 -37 -43 -15 -7 -27 -18 -27 -25 0 -8 -8 -19 -17 -26 -10
-7 -18 -18 -18 -25 0 -6 -7 -11 -15 -11 -8 0 -15 -4 -15 -8 0 -4 -8 -8 -17 -9
-99 -6 -183 -18 -183 -24 0 -5 -13 -9 -30 -9 -16 0 -30 -5 -30 -11 0 -5 -4 -8
-9 -5 -5 4 -11 1 -13 -4 -2 -6 -21 -13 -43 -17 -22 -3 -48 -15 -59 -25 -11
-10 -30 -18 -43 -18 -13 0 -23 -4 -23 -10 0 -5 -7 -10 -15 -10 -8 0 -15 -7
-15 -15 0 -8 -4 -15 -10 -15 -5 0 -10 -7 -10 -15 0 -8 -7 -15 -15 -15 -8 0
-15 -7 -15 -15 0 -12 -15 -14 -92 -9 -113 7 -138 17 -138 56 0 28 -2 29 -31
23 l-31 -7 7 46 c6 39 5 46 -9 46 -9 0 -16 7 -16 15 0 8 7 15 15 15 8 0 15 7
15 15 0 8 -5 15 -11 15 -14 0 -39 25 -39 39 0 6 -4 11 -9 11 -5 0 -17 7 -26
16 -13 14 -20 14 -47 3 -24 -10 -33 -10 -36 -1 -4 14 -32 16 -32 2 0 -5 -7
-10 -15 -10 -11 0 -15 11 -15 40 0 38 2 40 30 40 l30 0 0 65 0 65 -31 0 c-42
0 -28 16 22 24 l41 7 -7 57 c-4 31 -11 59 -16 60 -5 2 -9 14 -9 27 0 18 -7 25
-30 29 -16 3 -44 9 -60 12 -17 3 -37 12 -45 21 -20 19 -95 30 -95 14 0 -15
-25 -41 -39 -41 -6 0 -11 -9 -11 -20 0 -11 -7 -20 -15 -20 -8 0 -15 9 -15 20
0 11 -7 20 -15 20 -8 0 -15 -9 -15 -20 0 -17 -7 -20 -40 -20 -28 0 -40 4 -40
14 0 8 -13 17 -30 21 -27 6 -30 10 -30 46 l0 39 60 0 c33 0 60 4 60 10 0 5 11
12 25 16 14 3 25 10 25 15 0 5 19 9 43 9 l43 0 -4 100 c-4 80 -2 100 9 100 8
0 24 15 36 34 19 29 29 35 72 41 44 6 51 10 51 30 0 16 -7 25 -24 29 -17 4
-26 15 -31 36 -4 18 -11 27 -17 24 -7 -5 -9 3 -4 22 4 16 11 53 15 83 4 30 13
57 19 59 16 5 15 50 -1 66 -18 19 -43 25 -121 31 -75 6 -101 16 -131 52 -17
19 -31 23 -73 23 l-52 0 0 41 c0 23 -7 47 -15 55 -8 9 -15 31 -15 51 0 43 49
184 69 199 15 12 11 92 -7 103 -5 3 -13 17 -17 31 -4 14 -11 27 -16 30 -14 9
2 80 17 80 8 0 14 7 14 15 0 14 41 21 107 17 16 0 25 6 29 24 4 15 13 24 25
24 11 0 35 10 54 23 45 29 48 65 7 73 -23 5 -28 10 -25 27 4 21 2 22 -80 19
-84 -3 -85 -3 -91 23 -9 35 0 46 30 39 17 -5 30 -1 42 13 23 27 85 46 122 38
30 -7 30 -6 30 38 0 44 3 48 40 56 3 0 15 -2 28 -5z m-1783 -511 c-10 -95 -12
-101 -45 -108 -16 -4 -30 -12 -30 -19 0 -29 -29 -10 -39 26 -12 40 -6 63 23
88 9 7 16 21 16 32 0 10 5 16 10 13 6 -3 10 1 10 9 0 11 10 16 31 16 l30 0 -6
-57z m515 -543 c0 -11 -7 -20 -15 -20 -8 0 -15 9 -15 20 0 11 7 20 15 20 8 0
15 -9 15 -20z m973 -19 c-7 -26 -33 -36 -33 -12 0 21 8 31 26 31 7 0 10 -8 7
-19z m2837 -111 c0 -20 5 -30 15 -30 8 0 15 -4 15 -10 0 -5 7 -10 15 -10 8 0
15 -7 15 -15 0 -8 5 -15 10 -15 6 0 10 -7 10 -15 0 -8 7 -15 15 -15 10 0 15
-10 15 -30 0 -17 -5 -30 -12 -30 -10 0 -10 -2 -1 -8 8 -5 -6 -15 -40 -27 -28
-10 -58 -25 -65 -32 -18 -18 -52 -16 -52 2 0 8 -4 15 -10 15 -15 0 -50 33 -50
47 0 7 9 21 20 30 31 27 26 46 -10 38 -35 -8 -35 -5 -14 58 13 39 20 47 40 47
15 0 24 6 24 15 0 10 10 15 30 15 27 0 30 -3 30 -30z m-530 -425 c0 -8 -7 -15
-15 -15 -8 0 -15 7 -15 15 0 8 7 15 15 15 8 0 15 -7 15 -15z m-4990 -445 c0
-22 -4 -28 -15 -24 -8 4 -15 17 -15 30 0 15 6 24 15 24 10 0 15 -10 15 -30z
m-62 -11 c2 -5 10 -9 18 -9 10 0 14 -15 14 -60 0 -36 -4 -60 -11 -60 -6 0 -17
-7 -25 -15 -9 -8 -24 -15 -35 -15 -10 0 -19 -4 -19 -10 0 -5 -25 -10 -55 -10
-42 0 -55 -3 -55 -15 0 -8 -7 -15 -15 -15 -8 0 -15 -7 -15 -15 0 -8 -4 -15
-10 -15 -5 0 -10 -16 -10 -36 0 -19 4 -33 9 -30 24 15 20 -87 -5 -111 -7 -7
-49 -15 -93 -18 -68 -4 -81 -3 -81 10 0 10 -10 15 -30 15 -16 0 -30 4 -30 10
0 15 -33 50 -47 50 -7 0 -13 12 -13 26 0 26 -20 54 -39 54 -6 0 -11 14 -11 30
0 23 4 30 20 30 21 0 60 33 60 51 0 7 11 8 30 4 23 -5 30 -3 30 9 0 9 7 16 15
16 8 0 15 -4 15 -10 0 -5 18 -10 40 -10 29 0 40 4 40 15 0 8 7 15 15 15 8 0
15 5 15 10 0 6 14 10 30 10 27 0 30 3 30 30 0 17 5 30 10 30 6 0 10 7 10 15 0
11 12 15 45 15 35 0 45 4 45 16 0 13 8 15 53 9 28 -4 54 -11 55 -16z m2382
-29 c0 -22 -4 -40 -10 -40 -5 0 -10 -11 -10 -25 0 -14 -7 -28 -15 -31 -8 -4
-15 -17 -15 -30 0 -20 -5 -24 -30 -24 -25 0 -30 4 -30 25 0 16 6 25 15 25 11
0 15 11 15 38 0 27 8 47 28 70 37 43 52 41 52 -8z m540 -30 c0 -5 -15 -10 -32
-10 -25 0 -29 3 -18 10 20 13 50 13 50 0z m-2890 -105 c0 -9 -9 -15 -22 -15
-21 0 -21 0 -2 15 24 18 24 18 24 0z m4850 -60 c0 -8 -7 -15 -15 -15 -8 0 -15
7 -15 15 0 8 7 15 15 15 8 0 15 -7 15 -15z m2797 -34 c91 1 178 -4 203 -11 39
-11 41 -13 27 -27 -14 -14 -50 -17 -254 -17 -183 0 -244 3 -262 13 l-25 14 44
17 c25 10 50 15 57 13 7 -3 13 0 13 6 0 8 6 9 18 2 11 -6 91 -10 179 -10z
m268 -31 c3 -5 1 -10 -4 -10 -6 0 -11 5 -11 10 0 6 2 10 4 10 3 0 8 -4 11 -10z
m-12714 -171 c-7 -18 -10 -3 -10 67 -1 50 2 94 7 98 11 12 14 -137 3 -165z
m12836 165 c-3 -3 -12 -4 -19 -1 -8 3 -5 6 6 6 11 1 17 -2 13 -5z m-12840
-486 c-1 -40 -3 -8 -3 72 0 80 2 112 3 73 2 -40 2 -106 0 -145z m12 -335 c1
-39 -3 -75 -9 -78 -7 -4 -10 40 -9 127 2 106 3 122 9 78 5 -30 8 -87 9 -127z
m17612 34 c-10 -9 -11 -8 -5 6 3 10 9 15 12 12 3 -3 0 -11 -7 -18z m-9091 -7
c0 -5 11 -10 25 -10 14 0 28 -7 31 -15 4 -8 12 -15 20 -15 9 0 14 -11 14 -30
0 -16 -4 -30 -10 -30 -5 0 -10 -17 -10 -37 0 -21 -7 -46 -14 -55 -14 -19 -56
-25 -56 -8 0 6 -20 10 -45 10 -33 0 -45 4 -45 15 0 8 -4 15 -10 15 -24 0 -80
69 -80 98 0 5 14 12 30 16 18 3 30 12 30 21 0 8 7 15 15 15 8 0 15 5 15 10 0
6 20 10 45 10 25 0 45 -4 45 -10z m9046 -87 c-14 -26 -25 -45 -26 -41 0 12 43
98 48 94 2 -2 -8 -26 -22 -53z m-17551 -59 c9 -15 12 -23 6 -20 -11 7 -35 46
-28 46 3 0 12 -12 22 -26z m17461 -131 c-14 -26 -25 -45 -26 -41 0 12 43 98
48 94 2 -2 -8 -26 -22 -53z m-33 -68 c-3 -9 -8 -14 -10 -11 -3 3 -2 9 2 15 9
16 15 13 8 -4z m-17233 -80 c17 -25 29 -45 26 -45 -3 0 -19 20 -36 45 -17 25
-29 45 -26 45 3 0 19 -20 36 -45z m17201 12 c-10 -9 -11 -8 -5 6 3 10 9 15 12
12 3 -3 0 -11 -7 -18z m-35 -74 c-14 -26 -25 -45 -26 -41 0 12 43 98 48 94 2
-2 -8 -26 -22 -53z m-7878 10 c-5 -25 -28 -28 -28 -4 0 12 6 21 16 21 9 0 14
-7 12 -17z m-9228 -33 c12 -16 19 -30 16 -30 -2 0 -14 14 -26 30 -12 17 -19
30 -16 30 2 0 14 -13 26 -30z m70 -100 c12 -16 19 -30 16 -30 -2 0 -14 14 -26
30 -12 17 -19 30 -16 30 2 0 14 -13 26 -30z m16946 -67 c-14 -26 -25 -45 -26
-41 0 12 43 98 48 94 2 -2 -8 -26 -22 -53z m-16876 -33 c12 -16 19 -30 16 -30
-2 0 -14 14 -26 30 -12 17 -19 30 -16 30 2 0 14 -13 26 -30z m16827 -72 c-20
-46 -76 -154 -77 -146 0 8 81 178 86 178 3 0 -2 -15 -9 -32z m-12757 -88 c0
-11 -7 -20 -15 -20 -8 0 -15 -7 -15 -15 0 -8 -7 -15 -15 -15 -8 0 -15 9 -15
20 0 11 7 20 15 20 8 0 15 7 15 15 0 8 7 15 15 15 8 0 15 -9 15 -20z m12621
-196 c-22 -44 -40 -76 -41 -72 0 11 73 158 78 154 2 -2 -15 -39 -37 -82z
m-12561 21 c0 -8 -7 -15 -15 -15 -16 0 -20 12 -8 23 11 12 23 8 23 -8z m12451
-252 c-11 -21 -20 -35 -21 -31 0 12 33 78 38 74 2 -2 -6 -21 -17 -43z m-17000
-304 c-7 -18 -10 3 -10 82 -1 58 2 109 7 113 11 12 14 -167 3 -195z m6 -794
c1 -297 -1 -693 -6 -880 -6 -264 -8 -125 -8 620 0 528 3 924 6 880 4 -44 7
-323 8 -620z m18457 400 c3 -8 1 -15 -4 -15 -6 0 -10 7 -10 15 0 8 2 15 4 15
2 0 6 -7 10 -15z m76 -172 c0 -8 -13 -13 -30 -13 -20 0 -30 5 -30 15 0 8 -7
15 -15 15 -22 0 -20 69 3 91 16 16 18 14 44 -40 16 -31 28 -62 28 -68z m-2140
-242 c0 -6 -4 -13 -10 -16 -5 -3 -10 1 -10 9 0 9 5 16 10 16 6 0 10 -4 10 -9z
m-4195 -369 c22 -6 45 -18 51 -26 6 -9 15 -16 20 -16 5 0 20 -25 33 -54 23
-52 40 -67 89 -81 12 -4 22 -13 22 -20 0 -9 6 -12 15 -9 10 4 15 0 15 -15 0
-12 -4 -21 -9 -21 -5 0 -12 -13 -16 -30 -4 -16 -10 -30 -14 -30 -17 0 -73 -97
-87 -152 -16 -61 -39 -98 -61 -98 -7 0 -13 -4 -13 -8 0 -5 -9 -19 -19 -31 -18
-21 -30 -23 -188 -27 -160 -5 -169 -5 -190 15 -12 12 -27 21 -33 21 -6 0 -10
25 -10 60 0 47 3 60 15 60 8 0 15 5 15 11 0 5 4 7 10 4 5 -3 12 5 16 19 3 14
10 24 14 23 4 -1 19 11 34 26 21 23 26 38 26 81 0 39 -4 55 -15 60 -16 6 -21
46 -6 46 5 0 7 9 4 20 -3 11 -9 17 -14 14 -5 -3 -9 4 -9 15 0 16 6 21 25 21
14 0 25 5 25 10 0 6 14 10 30 10 20 0 30 5 30 15 0 8 5 15 10 15 6 0 10 7 10
15 0 8 7 15 15 15 8 0 15 4 15 10 0 5 8 19 18 31 18 22 46 22 127 1z m1175 3
c0 -8 7 -15 15 -15 8 0 15 -6 15 -14 0 -8 7 -16 15 -20 25 -9 17 -26 -14 -26
-16 0 -31 -5 -33 -12 -3 -7 -32 -14 -71 -16 -57 -4 -67 -2 -67 12 0 23 -18 20
-45 -9 -13 -15 -39 -29 -59 -32 -21 -3 -36 -11 -36 -19 0 -8 -7 -14 -15 -14
-10 0 -15 10 -15 29 0 22 6 30 25 35 14 4 25 11 25 16 0 6 7 10 15 10 8 0 15
7 15 15 0 10 10 15 30 15 20 0 30 5 30 15 0 9 9 15 25 15 16 0 25 6 25 15 0
12 13 15 60 15 47 0 60 -3 60 -15z m-416 -171 c9 -3 16 -14 16 -24 0 -23 -47
-40 -111 -40 -38 0 -49 4 -49 16 0 17 18 38 40 47 20 8 85 8 104 1z m136 -514
c12 -8 11 -10 -7 -10 -13 0 -23 5 -23 10 0 13 11 13 30 0z m-13094 -1197 c-18
-45 -22 29 -17 297 l5 285 9 -282 c5 -155 6 -290 3 -300z m4004 477 c0 -11 -7
-20 -15 -20 -8 0 -15 9 -15 20 0 11 7 20 15 20 8 0 15 -9 15 -20z m-2539
-1940 c10 -6 19 -18 19 -26 0 -8 4 -13 9 -10 8 5 26 -43 19 -49 -2 -1 -25 -6
-52 -9 -33 -5 -46 -4 -41 3 10 18 -52 13 -70 -5 -8 -9 -33 -18 -55 -21 l-39
-5 3 45 c4 52 10 65 40 77 30 12 144 12 167 0z m159 -190 c0 -11 -7 -20 -15
-20 -8 0 -15 9 -15 20 0 11 7 20 15 20 8 0 15 -9 15 -20z m18000 -1375 c0 -8
7 -15 15 -15 8 0 15 -7 15 -15 0 -8 4 -15 8 -15 12 0 42 -56 42 -79 0 -12 -4
-21 -10 -21 -5 0 -10 -9 -10 -20 0 -11 5 -20 10 -20 6 0 10 -7 10 -15 0 -9 -9
-15 -25 -15 -14 0 -25 -4 -25 -10 0 -5 -11 -10 -24 -10 -20 0 -24 6 -30 42 -5
28 -10 38 -15 29 -6 -10 -10 -9 -15 5 -10 25 5 158 18 166 18 13 36 9 36 -7z
m-33 -227 c-3 -8 -6 -5 -6 6 -1 11 2 17 5 13 3 -3 4 -12 1 -19z m123 -68 c0
-23 -4 -30 -20 -30 -20 0 -25 15 -14 44 11 28 34 18 34 -14z m-180 -345 c0 -8
-4 -15 -10 -15 -5 0 -10 7 -10 15 0 8 5 15 10 15 6 0 10 -7 10 -15z m-4980
-661 c0 -2 -7 -4 -15 -4 -8 0 -15 4 -15 10 0 5 7 7 15 4 8 -4 15 -8 15 -10z"/>
		<path d="M11961 17594 c0 -11 3 -14 6 -6 3 7 2 16 -1 19 -3 4 -6 -2 -5 -13z"/>
		<path d="M11740 16320 c0 -20 5 -30 15 -30 10 0 15 10 15 30 0 20 -5 30 -15
30 -10 0 -15 -10 -15 -30z"/>
		<path
			d="M13218 16062 c-5 -13 -85 -72 -97 -72 -6 0 -11 -4 -11 -10 0 -5 14
-10 30 -10 23 0 30 -4 30 -20 0 -11 -7 -20 -15 -20 -8 0 -15 -7 -15 -16 0 -12
-7 -15 -31 -12 -29 5 -31 3 -25 -24 9 -48 54 -78 79 -54 22 23 57 30 57 12 0
-10 9 -16 21 -16 16 0 19 4 14 21 -7 21 22 59 45 59 5 0 10 7 10 15 0 8 7 15
15 15 8 0 15 9 15 19 0 11 6 22 13 24 10 4 10 6 0 6 -8 1 -13 14 -13 31 0 20
-5 30 -15 30 -8 0 -15 7 -15 15 0 11 -12 15 -44 15 -24 0 -46 -3 -48 -8z"/>
		<path d="M13000 15835 c0 -8 -7 -15 -15 -15 -8 0 -15 -7 -15 -15 0 -10 10 -15
30 -15 27 0 30 3 30 30 0 20 -5 30 -15 30 -8 0 -15 -7 -15 -15z"/>
		<path d="M9080 16170 c0 -15 7 -20 25 -20 18 0 25 5 25 20 0 15 -7 20 -25 20
-18 0 -25 -5 -25 -20z"/>
		<path d="M9020 15830 c0 -16 7 -20 30 -20 29 0 30 -1 30 -51 0 -30 6 -56 14
-65 17 -16 146 -20 146 -4 0 6 7 10 15 10 18 0 20 34 4 79 -9 25 -16 31 -40
31 -18 0 -29 5 -29 14 0 14 -60 26 -131 26 -32 0 -39 -3 -39 -20z"/>
		<path
			d="M10200 15574 c0 -14 -9 -15 -60 -9 l-61 7 3 -42 c2 -28 -2 -44 -9
-47 -7 -3 -13 2 -13 11 0 9 -7 16 -16 16 -12 0 -15 -6 -11 -22 9 -33 -3 -70
-19 -64 -8 3 -14 -1 -14 -11 0 -13 -9 -15 -65 -9 -77 8 -95 14 -95 31 0 9 -17
14 -50 17 l-50 3 -7 -45 c-7 -42 -8 -211 -4 -825 1 -132 5 -246 10 -254 6 -9
18 -11 40 -6 29 6 32 9 26 36 -6 26 -3 31 29 44 19 8 46 15 60 15 13 0 26 5
28 11 2 7 29 12 64 13 45 1 65 -3 78 -16 10 -10 24 -18 32 -18 8 0 14 -4 14
-10 0 -5 7 -10 15 -10 10 0 15 -10 15 -29 0 -17 5 -29 13 -28 32 1 47 -4 47
-17 0 -18 -62 -25 -115 -14 -52 12 -135 1 -135 -18 0 -8 -9 -14 -20 -14 -12 0
-26 -5 -33 -10 -47 -40 -61 -50 -71 -50 -6 0 -20 -8 -31 -17 -15 -12 -16 -14
-3 -10 12 4 15 2 11 -9 -3 -7 -11 -14 -19 -14 -8 0 -14 -10 -14 -25 0 -18 5
-25 20 -25 23 0 27 -18 5 -26 -11 -5 -15 -22 -15 -65 0 -50 -2 -57 -16 -52
-15 5 -16 -1 -12 -52 3 -33 10 -61 16 -63 17 -5 15 -52 -2 -52 -19 0 -39 -97
-30 -144 7 -41 5 -40 41 -24 33 15 63 45 63 65 0 7 5 13 10 13 6 0 10 7 10 15
0 8 4 15 9 15 5 0 12 14 16 30 4 17 13 30 21 30 8 0 14 9 14 20 0 22 75 100
96 100 8 0 14 11 14 26 0 25 1 26 46 19 l45 -6 -7 36 c-6 33 -4 37 25 48 17 6
31 15 31 19 0 4 7 8 15 8 8 0 15 5 15 11 0 7 11 8 30 4 19 -4 30 -3 30 4 0 6
11 13 25 17 14 3 25 10 25 15 0 5 7 9 15 9 8 0 15 -7 15 -15 0 -8 7 -15 15
-15 12 0 14 11 8 60 -6 57 -5 60 17 60 19 0 21 4 16 26 -8 29 -29 54 -45 54
-6 0 -11 7 -11 16 0 8 -5 12 -10 9 -6 -3 -30 -3 -55 1 -34 5 -45 11 -45 24 0
10 9 21 19 25 13 4 17 12 14 26 -5 16 -11 19 -34 14 -22 -5 -29 -3 -29 9 0 9
-7 16 -15 16 -8 0 -15 5 -15 10 0 20 -53 69 -81 75 -16 4 -29 11 -29 16 0 5
-6 9 -14 9 -8 0 -15 14 -18 35 -2 19 -1 35 2 35 11 0 32 138 25 162 -9 26 -29
48 -44 48 -14 0 -14 47 -1 55 6 3 10 18 10 33 0 34 9 47 36 56 26 8 84 59 84
74 0 7 7 12 15 12 10 0 15 10 15 30 0 20 -5 30 -15 30 -9 0 -15 9 -15 25 0 15
6 25 14 25 8 0 16 14 19 33 3 17 11 61 18 97 17 84 53 130 61 78 l3 -23 20 23
c11 12 30 22 42 22 13 0 23 4 23 9 0 5 12 11 28 13 57 6 33 97 -30 113 -15 4
-29 14 -32 22 -5 11 -15 14 -41 9 -27 -5 -37 -3 -41 9 -8 20 -24 19 -24 -1z
m-280 -1344 c0 -5 -8 -10 -17 -10 -15 0 -16 2 -3 10 19 12 20 12 20 0z m-60
-30 c0 -5 -10 -10 -22 -10 -19 0 -20 2 -8 10 19 13 30 13 30 0z"/>
		<path
			d="M11572 15539 c-23 -18 -23 -18 -22 -271 1 -248 0 -253 -21 -272 -12
-10 -33 -19 -47 -21 -15 -1 -28 -8 -30 -14 -2 -6 -12 -11 -23 -11 -17 0 -19
-8 -19 -85 0 -50 -4 -85 -10 -85 -14 0 -13 -133 2 -197 7 -29 16 -53 20 -53 5
0 8 -5 8 -11 0 -15 26 -39 34 -32 3 4 6 1 6 -6 0 -6 6 -11 13 -10 24 3 37 -1
37 -12 0 -6 7 -17 15 -25 13 -14 15 -209 15 -1640 l0 -1624 20 0 c11 0 23 6
25 13 3 6 4 994 3 2194 l-3 2181 -23 -19z"/>
		<path
			d="M14320 12805 l0 -2755 1675 0 1675 0 0 520 c0 369 -3 520 -11 520 -6
0 -22 -9 -36 -20 -14 -11 -21 -20 -14 -20 8 0 11 -75 11 -269 l0 -269 -167 -7
c-92 -4 -228 -4 -303 -1 -199 10 -1158 8 -1424 -3 -244 -11 -550 -6 -706 10
-145 15 -409 -6 -477 -37 -28 -13 -33 -20 -33 -51 0 -24 7 -43 23 -58 12 -12
34 -36 49 -54 l27 -32 103 6 c209 12 400 12 412 0 6 -6 47 -15 91 -18 43 -4
81 -11 85 -16 3 -5 35 -8 70 -7 77 3 94 -4 109 -45 6 -17 20 -33 31 -36 11 -3
20 -11 20 -18 0 -7 10 -16 23 -21 18 -6 16 -8 -18 -10 -22 -2 -293 -5 -603 -6
l-562 -3 0 1995 c0 1097 4 2000 8 2006 4 6 23 15 42 20 19 4 38 9 43 10 4 1
15 2 25 3 10 1 26 21 39 49 24 52 25 116 3 297 -24 196 -24 204 -1 224 33 28
26 58 -11 52 -5 0 -8 8 -8 19 0 11 -4 20 -8 20 -5 0 -19 9 -32 20 -12 11 -32
18 -44 16 -11 -2 -29 1 -38 6 -17 8 -18 35 -18 338 0 257 3 330 13 330 14 1
-39 50 -54 50 -5 0 -9 -1033 -9 -2755z"/>
		<path
			d="M8560 12805 l0 -2745 560 0 560 0 0 2741 0 2741 -22 -14 -23 -15 -3
-2702 -2 -2701 -510 0 -510 0 2 2247 c2 1786 6 2247 16 2251 6 2 12 11 12 20
0 8 3 13 6 9 3 -3 15 2 26 12 14 14 17 26 12 45 -3 14 -10 26 -15 26 -5 0 -9
7 -9 15 0 8 -4 15 -10 15 -5 0 -10 5 -10 11 0 6 -7 17 -15 25 -13 13 -15 67
-17 347 -1 183 -2 344 -3 359 -1 27 -20 58 -36 58 -5 0 -9 -1177 -9 -2745z"/>
		<path d="M10466 15482 c-4 -31 -4 -1264 0 -2739 l7 -2683 1356 -2 c746 -2
1497 -3 1668 -3 l313 0 0 498 c0 481 -1 497 -19 488 -27 -15 -31 -82 -31 -537
l0 -404 -1626 0 -1626 0 4 2693 3 2692 -21 27 -21 27 -7 -57z"/>
		<path
			d="M18441 15456 c-9 -10 -11 -29 -7 -53 l6 -38 -25 48 c-18 34 -31 47
-43 45 -25 -5 -19 -33 43 -190 52 -132 68 -208 44 -208 -18 0 -41 -30 -35 -45
3 -8 1 -15 -4 -15 -6 0 -10 -11 -10 -24 0 -13 -5 -26 -10 -28 -6 -2 -13 -30
-16 -63 -3 -33 -7 -72 -8 -87 -3 -25 23 -70 38 -69 18 2 25 -2 55 -28 18 -16
30 -34 27 -40 -7 -11 27 -51 44 -51 6 0 10 -7 10 -15 0 -8 6 -15 14 -15 20 0
28 -32 17 -63 -12 -32 -7 -77 14 -117 23 -45 47 -70 67 -70 9 0 20 -9 23 -21
6 -19 50 -45 68 -40 25 5 76 -25 83 -48 8 -29 8 -26 -1 -64 -6 -21 -4 -27 8
-27 9 0 20 -15 27 -35 6 -19 18 -38 25 -42 27 -16 126 -253 105 -253 -6 0 -5
-11 2 -26 10 -21 9 -27 -3 -35 -8 -5 -9 -9 -4 -9 6 -1 0 -5 -12 -10 -32 -13
-70 -142 -48 -163 7 -7 15 -28 18 -47 22 -128 25 -133 90 -156 9 -3 17 -10 17
-15 0 -5 7 -9 15 -9 10 0 12 -6 8 -17 -6 -15 -4 -16 9 -6 8 7 17 10 20 7 3 -2
20 9 37 27 19 18 36 28 41 23 4 -5 36 -73 71 -151 34 -79 66 -143 70 -143 16
0 18 50 4 91 -28 77 -9 50 45 -66 51 -111 67 -129 87 -102 5 6 49 105 98 220
48 114 90 206 91 204 2 -1 -21 -65 -50 -142 -46 -120 -52 -142 -42 -167 l10
-28 29 63 c16 34 64 146 107 248 84 196 129 292 143 298 5 2 12 14 17 27 5 13
16 24 24 24 7 0 16 7 20 15 3 8 11 15 18 15 20 0 46 35 64 83 25 67 37 87 50
87 7 0 15 6 17 13 4 10 6 10 6 0 1 -7 6 -13 12 -13 18 0 34 23 53 75 11 28 27
58 38 68 10 10 16 22 13 26 -6 11 14 71 30 91 7 8 16 26 20 40 17 65 77 150
105 150 5 0 10 7 10 15 0 8 5 15 10 15 6 0 10 7 10 15 0 8 8 22 18 32 24 23
35 53 20 53 -6 0 -4 8 5 18 10 10 17 23 17 29 0 6 5 13 10 15 6 2 12 14 15 28
5 29 26 83 35 90 3 3 11 18 18 34 10 22 10 31 2 36 -18 11 -16 75 2 94 18 17
15 60 -4 84 -8 10 -13 10 -18 1 -8 -12 -56 10 -94 43 -19 17 -18 20 47 186 73
186 81 214 56 220 -18 3 -43 -45 -109 -205 -18 -46 -35 -81 -37 -79 -2 2 10
41 27 87 42 112 52 166 34 184 -9 8 -51 15 -121 19 -60 3 -172 11 -249 16 -78
6 -267 10 -420 10 -256 1 -880 21 -1084 36 -72 6 -88 4 -99 -10z m1900 -383
c-12 -20 -14 -14 -5 12 4 9 9 14 11 11 3 -2 0 -13 -6 -23z m-1352 -1038 c0 -5
-6 1 -14 15 -8 14 -14 30 -14 35 0 6 6 -1 14 -15 8 -14 14 -29 14 -35z m41
-95 c17 -40 28 -75 26 -77 -2 -2 -16 27 -31 64 -37 91 -39 99 -32 92 4 -3 20
-38 37 -79z m646 -487 c-8 -15 -15 -25 -16 -21 0 12 23 58 27 54 3 -2 -2 -17
-11 -33z"/>
		<path
			d="M23672 15404 c-74 -6 -144 -16 -155 -22 -12 -5 -74 -22 -137 -36 -63
-15 -133 -33 -155 -40 -22 -8 -68 -22 -102 -32 -35 -11 -63 -22 -63 -26 0 -5
-12 -8 -26 -8 -19 0 -25 -5 -22 -17 2 -10 12 -19 23 -21 37 -6 50 -13 39 -20
-14 -9 -24 -62 -13 -62 5 0 9 4 9 10 0 5 11 12 25 16 14 3 25 10 25 15 0 5 14
9 30 9 20 0 30 -5 30 -15 0 -8 7 -15 15 -15 9 0 15 -9 15 -25 0 -16 6 -25 15
-25 8 0 15 -6 15 -14 0 -8 15 -16 38 -20 54 -9 69 -7 84 7 23 23 49 28 64 13
8 -8 14 -19 14 -25 0 -6 5 -11 10 -11 6 0 10 -16 10 -35 0 -24 5 -35 15 -35 9
0 15 9 15 25 0 14 5 25 12 25 6 0 19 7 29 16 11 10 25 13 40 9 17 -6 19 -9 8
-16 -10 -6 -10 -9 -2 -9 7 0 18 9 25 20 15 24 46 26 62 5 6 -9 26 -16 43 -18
19 -1 33 -8 33 -14 0 -7 7 -13 15 -13 8 0 15 -6 15 -12 0 -9 4 -8 10 2 8 12
10 12 10 1 0 -8 7 -11 19 -8 12 3 22 -1 25 -9 6 -15 46 -20 46 -5 0 5 21 12
48 15 26 4 56 10 67 12 72 17 102 15 159 -10 55 -25 96 -58 96 -78 0 -13 21
-31 52 -45 29 -13 156 -103 193 -137 99 -92 163 -136 195 -136 40 0 126 -72
155 -130 19 -38 48 -70 64 -70 5 0 29 -15 53 -32 60 -46 87 -57 136 -56 28 0
42 5 42 14 0 10 14 14 45 14 41 0 45 -2 45 -25 0 -16 -6 -25 -15 -25 -8 0 -15
-7 -15 -15 0 -8 7 -15 15 -15 8 0 15 -7 15 -15 0 -8 -6 -15 -14 -15 -10 0 -16
-18 -21 -60 -9 -75 2 -160 20 -160 7 0 15 5 17 10 2 7 18 5 47 -4 l43 -16 11
30 c6 17 17 30 24 30 7 0 13 11 13 26 0 37 20 51 83 59 55 7 57 7 57 -16 0
-13 7 -36 14 -52 9 -16 14 -50 13 -82 -2 -50 -4 -55 -29 -60 -47 -11 -192 -23
-205 -18 -20 8 -42 -27 -43 -65 0 -26 8 -42 33 -64 33 -32 111 -78 131 -78 6
0 46 -20 88 -45 43 -25 80 -45 83 -45 3 0 5 398 5 884 l0 884 -82 0 c-146 -2
-319 10 -334 23 -9 8 -60 11 -166 9 -84 -2 -175 -3 -203 -2 -512 8 -1032 6
-1143 -4z"/>
		<path d="M22957 15193 c-12 -11 -8 -23 8 -23 8 0 15 7 15 15 0 16 -12 20 -23
8z"/>
		<path
			d="M7160 15143 c0 -10 16 -30 35 -46 110 -88 306 -415 358 -597 33 -116
51 -321 41 -466 l-7 -103 -51 -15 c-28 -8 -64 -17 -79 -20 -33 -6 -115 -62
-131 -90 -6 -11 -20 -29 -31 -40 l-20 -21 44 -7 c32 -5 53 -3 84 11 23 11 55
22 71 26 17 3 38 15 47 27 10 11 25 18 33 16 13 -2 10 -18 -18 -99 -55 -160
-173 -359 -254 -433 -19 -16 -23 -17 -36 -3 -9 9 -44 18 -83 22 -94 9 -103 13
-103 41 0 20 -5 24 -29 24 -15 0 -49 3 -73 6 l-46 6 -21 -64 c-22 -65 -28
-198 -10 -198 5 0 9 -8 9 -18 0 -10 16 -31 36 -47 l35 -28 -47 -28 c-27 -15
-51 -36 -55 -47 -15 -41 12 -62 163 -127 81 -34 163 -72 182 -83 25 -15 42
-19 63 -13 27 7 25 9 -46 51 -65 38 -198 102 -285 139 l-29 12 69 41 c347 206
571 507 649 873 21 99 30 330 17 450 -22 193 -72 342 -174 516 -70 118 -183
266 -241 313 -49 40 -67 45 -67 19z m407 -1300 c-3 -10 -5 -4 -5 12 0 17 2 24
5 18 2 -7 2 -21 0 -30z"/>
		<path
			d="M5439 15009 c-299 -8 -385 -19 -454 -58 -75 -42 -106 -104 -151 -305
l-18 -78 25 -19 c13 -10 38 -25 54 -33 17 -9 42 -26 56 -38 26 -22 242 -314
469 -633 180 -253 271 -375 280 -375 4 0 11 7 14 16 4 11 -26 61 -87 148 -51
72 -220 310 -375 528 -155 218 -282 399 -282 402 0 3 201 6 448 6 482 0 567
-7 704 -54 93 -33 152 -69 224 -138 112 -107 164 -246 164 -437 0 -168 -34
-289 -111 -396 -25 -35 -30 -48 -21 -57 27 -27 110 89 150 210 24 71 26 91 27
247 0 191 -12 247 -80 359 l-34 56 30 0 c19 0 29 5 29 15 0 8 7 15 16 15 14 0
15 7 10 40 -5 32 -3 40 9 40 8 0 15 7 15 15 0 9 10 15 26 15 26 0 54 20 54 39
0 17 -54 109 -90 153 -80 97 -189 181 -295 225 -124 53 -404 107 -519 101 -17
0 -146 -5 -287 -9z"/>
		<path d="M10392 14980 c0 -14 2 -19 5 -12 2 6 2 18 0 25 -3 6 -5 1 -5 -13z"/>
		<path
			d="M5038 14553 c-44 -11 -12 -67 107 -193 40 -41 112 -129 160 -195 49
-66 114 -151 145 -190 32 -38 69 -88 83 -110 51 -79 147 -216 167 -237 11 -12
20 -25 20 -28 0 -4 10 -18 23 -32 12 -13 30 -35 39 -49 68 -95 94 -127 100
-123 3 2 10 -1 13 -7 9 -13 66 -4 166 27 l75 24 -4 62 c-3 35 -10 66 -16 70
-6 4 -10 34 -9 73 l1 65 -29 0 c-31 0 -38 17 -17 38 10 10 10 15 -2 22 -11 7
-14 24 -13 60 2 38 -1 50 -12 50 -10 0 -15 10 -15 30 0 20 -5 30 -15 30 -9 0
-15 9 -15 25 0 16 -6 25 -15 25 -20 0 -20 39 0 59 8 9 49 59 91 111 65 80 76
90 70 63 -5 -20 -4 -33 2 -33 6 0 13 -13 17 -28 5 -24 10 -28 34 -24 39 5 64
-21 56 -60 -7 -29 -7 -29 37 -26 37 3 44 7 48 28 5 24 29 40 31 20 1 -6 2 -14
3 -19 0 -5 18 -28 39 -52 20 -24 37 -50 37 -57 0 -29 28 9 35 46 15 96 -48
251 -142 345 -69 70 -202 140 -308 162 -38 9 -137 17 -220 20 -234 7 -748 13
-767 8z m809 -300 c-3 -3 -13 -3 -21 -1 -15 3 -15 6 1 28 l18 25 3 -23 c2 -13
1 -26 -1 -29z m-77 -18 c0 -11 -12 -15 -45 -15 -33 0 -45 4 -45 15 0 11 12 15
45 15 33 0 45 -4 45 -15z m30 -75 c0 -64 -3 -80 -15 -80 -8 0 -15 -7 -15 -15
0 -9 -10 -15 -26 -15 -23 0 -25 -3 -19 -30 6 -27 4 -30 -19 -30 -14 0 -26 -4
-26 -10 0 -5 -11 -12 -25 -16 -14 -3 -25 -10 -25 -15 0 -14 -28 -11 -33 4 -2
6 5 24 15 40 l19 27 -45 0 c-34 0 -46 4 -46 15 0 8 7 15 15 15 10 0 15 10 15
30 0 21 -5 30 -16 30 -11 0 -14 9 -12 37 3 35 28 61 28 29 0 -9 7 -16 15 -16
8 0 15 -7 15 -15 0 -8 7 -15 15 -15 10 0 15 10 15 30 0 25 4 30 25 30 16 0 25
-6 25 -15 0 -10 10 -15 29 -15 23 0 36 9 58 40 15 22 29 40 31 40 1 0 2 -36 2
-80z m168 -597 c-5 -26 -38 -29 -38 -4 0 15 6 21 21 21 14 0 19 -5 17 -17z"/>
		<path d="M13310 14480 c0 -5 7 -10 15 -10 8 0 15 5 15 10 0 6 -7 10 -15 10 -8
0 -15 -4 -15 -10z"/>
		<path d="M13280 14420 c0 -18 6 -20 63 -19 34 1 54 3 45 6 -10 2 -18 11 -18
19 0 10 -13 14 -45 14 -38 0 -45 -3 -45 -20z"/>
		<path d="M12478 14363 c7 -3 16 -2 19 1 4 3 -2 6 -13 5 -11 0 -14 -3 -6 -6z"/>
		<path
			d="M7586 13613 c-123 -250 -276 -435 -471 -570 -50 -34 -100 -70 -112
-78 -13 -9 -23 -23 -23 -31 0 -38 210 -85 234 -52 6 8 30 27 54 41 40 26 42
26 42 7 0 -27 50 -27 75 0 24 27 35 25 35 -5 0 -16 6 -25 15 -25 8 0 15 7 15
15 0 8 7 15 15 15 8 0 15 -4 15 -10 0 -5 5 -10 11 -10 19 0 39 28 39 54 0 23
-4 26 -36 26 -21 0 -33 4 -29 10 4 6 -5 10 -19 10 -16 0 -26 6 -26 14 0 8 -6
16 -12 19 -9 3 -5 13 12 31 14 15 24 30 22 32 -2 3 19 51 47 108 74 149 189
516 162 516 -4 0 -33 -53 -65 -117z"/>
		<path
			d="M5230 12819 c-308 -11 -415 -58 -513 -223 -50 -85 -54 -93 -77 -175
-15 -52 -16 -76 -9 -130 13 -95 29 -173 39 -196 5 -11 18 -47 29 -80 20 -62
75 -140 92 -130 5 4 13 -4 18 -17 6 -13 10 -18 10 -11 1 14 34 10 39 -5 2 -7
-1 -12 -7 -12 -6 0 -11 -19 -11 -45 0 -25 -4 -45 -10 -45 -5 0 -10 -23 -10
-50 0 -40 5 -56 25 -78 l25 -27 0 -240 c0 -248 6 -286 42 -293 9 -2 22 6 28
17 9 17 8 21 -5 21 -13 0 -15 71 -15 635 l0 635 559 0 c340 0 590 -4 638 -11
260 -35 434 -125 538 -280 72 -106 87 -157 92 -319 7 -206 -28 -325 -128 -434
-46 -51 -48 -56 -31 -65 16 -9 27 -3 65 35 90 88 140 216 154 390 6 83 6 83
37 89 43 9 106 52 106 73 0 9 11 52 25 94 18 57 22 84 16 105 -5 15 -12 54
-15 87 -10 91 -47 156 -155 269 -187 196 -241 246 -300 277 -52 26 -179 65
-259 80 -257 46 -708 72 -1032 59z"/>
		<path
			d="M4947 12345 c-19 -19 -23 -113 -7 -180 5 -22 10 -257 10 -522 1 -482
1 -483 23 -494 33 -18 1040 -3 1170 17 128 20 313 94 369 147 7 7 25 20 40 30
35 22 101 120 121 177 8 25 20 72 27 105 6 33 16 79 21 102 41 186 -61 393
-251 508 -70 42 -143 69 -265 97 -84 20 -128 21 -666 25 -526 4 -577 3 -592
-12z"/>
		<path d="M18490 11850 c0 -11 7 -20 15 -20 8 0 15 9 15 20 0 11 -7 20 -15 20
-8 0 -15 -9 -15 -20z"/>
		<path d="M21840 11780 c0 -23 4 -30 20 -30 22 0 25 12 10 41 -16 28 -30 23
-30 -11z"/>
		<path
			d="M22448 11800 c-1 -5 -27 -15 -55 -22 -51 -12 -53 -14 -53 -46 0 -18
-7 -40 -15 -48 -19 -20 -19 -44 0 -44 9 0 23 -17 33 -37 9 -20 27 -48 39 -61
12 -13 25 -34 29 -45 8 -25 28 -47 43 -47 6 0 11 -9 11 -20 0 -13 -7 -20 -19
-20 -14 0 -17 -6 -13 -25 3 -18 0 -25 -12 -25 -11 0 -16 -9 -16 -30 0 -19 5
-30 14 -30 18 0 33 -43 17 -48 -24 -8 -81 -70 -81 -88 0 -13 16 -27 53 -44 28
-13 59 -32 68 -42 26 -28 94 -24 138 9 20 15 38 29 41 32 3 4 21 14 40 23 40
21 73 40 80 49 3 4 15 9 28 13 15 5 22 15 22 34 0 33 -31 122 -42 122 -11 0
-10 78 1 82 5 2 13 15 16 31 7 25 5 27 -23 27 -29 0 -62 21 -62 40 0 5 -9 11
-19 15 -10 3 -22 17 -25 30 -3 13 -19 32 -35 41 -17 10 -33 29 -36 43 -4 14
-15 32 -26 42 -10 9 -22 32 -26 50 -3 19 -11 37 -17 41 -16 11 -94 10 -98 -2z"/>
		<path d="M21830 11625 c0 -8 9 -15 20 -15 11 0 20 7 20 15 0 8 -9 15 -20 15
-11 0 -20 -7 -20 -15z"/>
		<path d="M21714 11514 c3 -8 6 -29 6 -45 0 -21 5 -29 18 -29 11 0 24 -11 30
-25 6 -14 20 -25 29 -25 10 0 28 -3 41 -6 19 -6 22 -3 22 25 0 28 -3 31 -30
31 -31 0 -41 16 -15 26 8 4 15 18 15 33 0 25 -2 26 -61 29 -53 2 -60 0 -55
-14z"/>
		<path d="M21623 11493 c-28 -11 -5 -73 27 -73 18 0 40 27 40 48 0 27 -33 39
-67 25z"/>
		<path
			d="M21685 11383 c-11 -3 -22 -9 -25 -13 -19 -27 -150 -109 -180 -112
-32 -3 -70 -30 -70 -50 0 -17 41 -48 65 -48 14 0 25 -5 25 -11 0 -16 26 -39
44 -39 9 0 16 5 16 11 0 6 15 10 38 8 60 -5 101 9 108 37 3 13 9 24 14 24 10
0 30 71 30 109 0 17 -4 31 -9 31 -5 0 -12 14 -16 30 -4 17 -10 29 -13 29 -4
-1 -16 -4 -27 -6z"/>
		<path d="M23263 11372 c-13 -4 -32 -15 -43 -24 -11 -10 -29 -18 -41 -18 -33 0
-54 -27 -41 -53 6 -12 13 -35 14 -51 5 -48 82 -97 162 -103 l64 -6 31 43 c25
34 31 53 31 92 0 60 -29 108 -65 108 -13 0 -27 5 -30 10 -7 11 -47 12 -82 2z"/>
		<path d="M17158 11163 c7 -3 16 -2 19 1 4 3 -2 6 -13 5 -11 0 -14 -3 -6 -6z"/>
		<path
			d="M17770 11040 c0 -5 -9 -10 -19 -10 -28 0 -32 -20 -32 -176 0 -172 18
-254 58 -254 13 0 23 6 23 14 0 18 43 33 48 17 2 -6 17 -11 33 -11 16 0 29 -4
29 -10 0 -5 7 -10 15 -10 8 0 15 5 15 11 0 23 76 79 106 79 13 0 24 4 24 8 0
12 103 82 120 82 22 0 80 23 80 32 0 4 6 8 13 8 29 0 67 45 67 79 0 40 -15 55
-85 86 -62 28 -233 44 -246 24 -9 -16 -79 8 -79 27 0 11 -15 14 -62 14 -56 0
-60 -1 -42 -15 15 -11 16 -14 3 -15 -8 0 -24 7 -35 15 -23 17 -34 19 -34 5z"/>
		<path
			d="M21398 10665 c-7 -9 -19 -22 -25 -30 -7 -7 -13 -18 -13 -23 0 -6 -16
-27 -36 -48 -45 -46 -74 -144 -39 -130 9 3 15 0 15 -9 0 -10 10 -15 30 -15 17
0 30 4 30 9 0 5 9 13 21 16 11 4 27 21 34 38 7 18 17 36 21 40 5 4 14 29 21
55 21 82 -18 146 -59 97z"/>
		<path d="M21240 10381 c0 -25 4 -31 21 -31 16 0 20 5 17 27 -2 17 -10 29 -20
31 -14 3 -18 -3 -18 -27z"/>
		<path d="M7870 10364 c0 -10 -6 -14 -15 -10 -8 3 -15 0 -15 -7 0 -22 41 -49
81 -54 l39 -6 0 47 0 46 -45 0 c-35 0 -45 -4 -45 -16z"/>
		<path d="M21174 10125 c-7 -30 17 -62 74 -97 25 -16 43 -19 80 -14 82 9 112
21 112 43 0 8 5 11 10 8 17 -11 11 21 -7 37 -34 29 -58 36 -160 43 l-102 7 -7
-27z"/>
		<path
			d="M15740 10029 c-657 -3 -1231 -10 -1275 -13 -126 -11 -125 -11 -125
-55 0 -74 11 -78 222 -91 103 -7 234 -10 290 -9 130 4 1495 -9 1768 -16 199
-5 334 -18 375 -35 47 -20 215 -36 215 -20 0 11 63 19 269 34 153 11 174 15
195 35 30 29 43 124 20 158 l-14 23 -373 -2 c-204 -1 -910 -5 -1567 -9z"/>
		<path d="M8566 10015 c-14 -15 -17 -29 -13 -68 6 -71 22 -80 122 -73 44 3 271
11 505 16 234 6 432 13 441 16 18 5 35 82 22 95 -4 4 -183 10 -398 13 -214 3
-451 9 -525 12 -123 6 -138 5 -154 -11z"/>
		<path d="M18878 10019 c-14 -8 -18 -23 -18 -69 0 -79 17 -96 102 -104 168 -15
432 -16 713 -5 300 13 311 14 332 36 18 18 23 33 23 78 0 50 -2 56 -26 65 -35
14 -1103 13 -1126 -1z"/>
		<path
			d="M13005 10000 c-60 -4 -533 -5 -1050 -2 -517 2 -1031 0 -1142 -3 -190
-7 -203 -8 -203 -26 0 -12 7 -19 20 -19 11 0 20 7 20 15 0 9 9 15 25 15 15 0
25 -6 25 -15 0 -9 6 -12 15 -9 9 4 15 0 15 -9 0 -33 59 -39 391 -44 226 -4
357 -2 425 7 55 7 104 11 109 10 6 -1 287 -3 625 -5 338 -2 734 -9 880 -15
175 -8 322 -9 435 -4 l170 9 3 46 3 46 -68 6 c-83 8 -547 6 -698 -3z"/>
		<path
			d="M17507 9565 c-28 -20 -37 -32 -37 -55 0 -15 -4 -30 -9 -32 -5 -1 -12
-26 -15 -53 -7 -47 -5 -53 23 -83 17 -18 37 -32 44 -32 7 0 22 -7 33 -15 29
-22 41 -18 48 15 3 19 12 30 22 30 17 0 16 19 -2 95 -4 17 -3 27 1 23 13 -12
38 43 25 56 -5 5 -10 20 -10 31 0 17 -9 25 -39 33 -48 15 -40 16 -84 -13z"/>
		<path d="M22198 9283 c-16 -2 -28 -10 -29 -16 -1 -7 -2 -32 -3 -57 -2 -25 -6
-54 -9 -65 -10 -30 21 -63 63 -67 31 -3 36 1 52 32 21 41 18 101 -6 125 -9 9
-16 25 -16 36 0 10 -6 18 -12 18 -7 -1 -25 -4 -40 -6z"/>
		<path
			d="M7035 8968 c-27 -11 -52 -24 -56 -29 -3 -6 -25 -13 -48 -16 -35 -5
-41 -9 -41 -29 0 -15 6 -24 15 -24 9 0 15 -9 15 -21 0 -18 -4 -20 -30 -14 -23
5 -30 3 -30 -9 0 -9 7 -16 15 -16 8 0 15 -6 15 -14 0 -22 37 -26 56 -5 27 29
34 23 28 -24 -5 -32 -2 -47 10 -59 9 -9 16 -21 16 -27 0 -6 5 -11 10 -11 6 0
10 -7 10 -15 0 -8 -4 -15 -10 -15 -5 0 -10 -7 -10 -15 0 -9 9 -15 25 -15 14 0
28 -7 31 -14 4 -12 24 -14 83 -13 75 2 79 3 112 38 19 20 44 39 56 43 12 4 38
26 58 49 34 38 37 46 31 86 -6 40 -5 43 15 38 19 -5 21 -3 15 25 -3 17 -6 37
-6 44 0 10 -13 14 -40 14 -22 0 -40 5 -40 10 0 6 -11 10 -25 10 -14 0 -28 7
-32 16 -4 11 -13 14 -31 9 -14 -3 -28 -2 -31 3 -3 5 -35 11 -71 14 -51 5 -76
2 -115 -14z"/>
		<path d="M6786 8935 c-8 -8 -19 -15 -25 -15 -6 0 -11 -13 -11 -30 0 -27 -3
-30 -30 -30 -28 0 -30 -2 -30 -41 l0 -41 53 62 c44 53 53 59 55 41 2 -13 11
-21 23 -21 14 0 19 7 19 30 0 17 -4 30 -10 30 -5 0 -7 7 -4 15 4 9 0 15 -9 15
-9 0 -22 -7 -31 -15z"/>
		<path
			d="M6860 8515 c0 -8 -7 -15 -15 -15 -8 0 -15 -6 -15 -14 0 -8 -6 -16
-13 -19 -9 -3 -14 -30 -15 -87 -2 -78 -1 -82 19 -77 19 5 20 2 13 -39 -5 -37
-4 -44 10 -44 9 0 16 4 16 9 0 5 14 12 30 16 17 4 30 13 30 21 0 8 6 14 13 14
8 0 28 7 45 15 28 14 30 19 25 51 -7 43 -55 94 -89 94 -15 0 -24 6 -24 15 0 8
7 15 15 15 10 0 15 10 15 30 0 27 -3 30 -30 30 -20 0 -30 -5 -30 -15z"/>
		<path d="M6110 7255 c0 -8 6 -15 14 -15 8 0 16 7 20 15 4 10 -1 15 -14 15 -11
0 -20 -7 -20 -15z"/>
		<path d="M6258 7213 c-25 -6 -23 -33 2 -33 13 0 20 7 20 20 0 11 -1 19 -2 19
-2 -1 -11 -3 -20 -6z"/>
		<path d="M6240 7135 c0 -8 6 -15 14 -15 8 0 16 7 20 15 4 10 -1 15 -14 15 -11
0 -20 -7 -20 -15z"/>
		<path d="M23681 6774 c0 -11 3 -14 6 -6 3 7 2 16 -1 19 -3 4 -6 -2 -5 -13z"/>
		<path
			d="M17600 6580 c0 -38 2 -40 30 -40 25 0 30 -4 30 -25 0 -28 32 -65 55
-65 15 0 25 -6 59 -37 19 -17 129 -34 137 -21 4 6 12 7 18 4 20 -12 12 33 -9
54 -11 11 -20 25 -20 32 0 6 -3 8 -7 5 -7 -7 -63 51 -63 65 0 4 -29 22 -63 38
-45 21 -79 30 -115 30 l-52 0 0 -40z"/>
		<path d="M22590 6240 c0 -5 -7 -10 -15 -10 -11 0 -15 -12 -15 -45 0 -33 4 -45
15 -45 8 0 15 -4 15 -10 0 -5 7 -10 15 -10 9 0 15 9 15 25 0 14 5 25 10 25 15
0 12 49 -4 66 -17 16 -36 19 -36 4z"/>
		<path d="M8930 5744 c0 -8 5 -12 10 -9 6 4 8 11 5 16 -9 14 -15 11 -15 -7z"/>
		<path d="M7060 5629 c0 -5 5 -7 10 -4 6 3 10 8 10 11 0 2 -4 4 -10 4 -5 0 -10
-5 -10 -11z"/>
		<path d="M7030 5599 c0 -5 5 -7 10 -4 6 3 10 8 10 11 0 2 -4 4 -10 4 -5 0 -10
-5 -10 -11z"/>
		<path d="M16870 5600 c0 -5 -18 -10 -40 -10 -38 0 -40 -2 -40 -30 0 -25 4 -30
25 -30 16 0 25 6 25 16 0 14 3 14 15 4 10 -9 15 -9 15 -1 0 6 7 11 15 11 9 0
15 9 15 25 0 16 -6 25 -15 25 -8 0 -15 -4 -15 -10z"/>
	</g>
</svg>
